<?xml version="1.0" encoding="utf-8"?>
<!-- Generator: Adobe Illustrator 24.0.1, SVG Export Plug-In . SVG Version: 6.00 Build 0)  -->
<svg version="1.1" id="Layer_2" xmlns="http://www.w3.org/2000/svg" xmlns:xlink="http://www.w3.org/1999/xlink" x="0px" y="0px"
	 viewBox="0 0 1150 23" style="enable-background:new 0 0 1150 23;" xml:space="preserve">
<style type="text/css">
	.st0{fill:#E6E7E8;}
</style>
<g>
	<path class="st0" d="M1150,23c-5.6,0.1-10.3-2.2-13.8-4.9c-24.2-27.4-28.8,18.5-56,1.1c-30.4-32.2-30.8,28.2-65.9-7.5
		c-3.7-2.2-4.4-3-10.4-2.6c-47.1,35.8-36.1-10.8-63,2.6c-36.2,35.1-38.2-24.2-64.5,6.4c-3.4,2.7-7,4.4-13.8,4.9
		c-5.3,0.1-10.5-2.2-13.8-4.9c-24.2-27-27.2,16.3-54.4,2.1C754-14.9,776.1,48.8,718.8,9c-53.4,34-33.9-6-63.8,1.6
		c-44.7,38.4-31.1-26.4-72.9,11.3c-22.8,8.1-27.8-24.2-45.4-8.8c-4.7,4.4-7.9,8.4-16.6,9.7c-14.8,1.7-17.6-8.4-26.8-13.1
		c-29-2.5-12.8,31.4-62-0.7c-53,35.2-36.5-10.1-65.5,2.8c-36.3,35.1-38.2-24.2-64.5,6.4c-3.4,2.7-7,4.4-13.8,4.9
		c-4.9,0-10.5-2-13.8-4.9c-24.5-27-27.3,16.4-54.5,2.1C178.7-15,201.4,48.8,143.8,9c-52.8,35.2-37-10.2-65.5,2.8
		c-36.1,35.1-38.3-24.2-64.5,6.4c-3.4,2.7-7,4.4-13.8,4.9v-9c53.6-35.3,35.8,9.9,65.5-2.8c37.1-35.5,37.2,25.3,66-7.5
		c4.7-2.8,7.1-3.9,14.9-3.6c5.1,0.6,7.9,2.4,11.2,4.7c24.2,27.4,28.9-18.5,56-1.1c30.5,32.2,30.7-28.2,65.9,7.5
		c3.7,2.2,4.4,3,10.5,2.6c46.9-35.8,36.2,10.8,63-2.6c36.1-35.1,38.3,24.2,64.5-6.4c3.4-2.7,7-4.4,13.8-4.9
		c5.1-0.1,10.6,2.2,13.8,4.9c24.4,26.5,25.6-14.1,52.7-3c40.7,36.4,27.2-28.7,72.7,11.4c4.5,1.5,8.6,0.9,12.5-2
		c32.6-31.3,35.9,11.3,55.8,1.1c39.2-37.2,38.9,23.3,66.1-7.5c3.4-2.7,7-4.5,13.8-4.9c4.9,0,10.4,2,13.8,4.9
		c24.2,27,27.4-16.4,54.4-2.1C827.5,38,805-25.8,862.5,14c53.1-34,34.3,6.2,63.8-1.6c46.7-38.6,27.7,26.3,75-11.9
		c6.5-1.5,12.5,0.1,17.2,3.3c27.3,27.8,24.2-10.6,52.2-2.7c49.9,37.7,18.4-27.5,79.2,12.9V23z"/>
</g>
</svg>
