<?xml version="1.0" encoding="utf-8"?>
<!-- Generator: Adobe Illustrator 24.0.1, SVG Export Plug-In . SVG Version: 6.00 Build 0)  -->
<svg version="1.1" id="Layer_1" xmlns="http://www.w3.org/2000/svg" xmlns:xlink="http://www.w3.org/1999/xlink" x="0px" y="0px"
	 viewBox="0 0 1150 34" style="enable-background:new 0 0 1150 34;" xml:space="preserve">
<style type="text/css">
	.st0{fill:#FFFFFF;}
</style>
<path class="st0" d="M1121.3,0c-5-0.1-8.8,2.1-11.9,4.7c-27.1,26-27.1-8.8-49.9-4.2c-45.4,33.8-28-7.8-61,1.3
	c-41,37.3-31.9-27.3-70.7,10.5c-25.1,10-27.2-31-54.6-1.9c-3.9,2.6-6.2,3.8-12.9,3.5c-50.8-32.6-25.8,3.4-61.3-0.9
	c-43.5-38.1-30.4,23.6-69.9-8.8c-4.8-3-7.9-3.9-11.3-4.3C696.4,2,706,29.4,662.9,0c-6.5,0.4-7.2-0.3-14.1,5.6
	c-23,21.1-26.4-1.3-40.9-5c-4.5-0.1-6.1-2.7-13.8,3.6C553.8,36,563-24.1,526.9,11.4c-23,11.1-26.4-19.6-45.8-9.4
	c-44.5,36.8-24.6-27.6-75.8,11.8c-28.1,0.5-14.6-31-57.2,0c-31.7-1.2-8.9-28.2-59.4-0.8c-17.8,2.8-19.2-19.5-35.9-11.7
	c-39.1,34.7-41.2-23.1-67.8,7.9c-28.1,18.8-29.1-30.1-62.6,2.7c-3.3,2.1-6.9,3-11.4,1.7c-34.4-29.2-36.5,2.2-58.9,0
	C18.5-16,20,12.4,0,14v20h1150V14C1135.6,14,1135.6,0,1121.3,0z"/>
</svg>
