<xml version="1.0" encoding="utf-8">
<svg version="1.1" id="Слой_1" xmlns="http://www.w3.org/2000/svg" xmlns:xlink="http://www.w3.org/1999/xlink" x="0px" y="0px" viewBox="0 0 60 60" style="enable-background:new 0 0 60 60;" xml:space="preserve">
  <path class="st0" d="M30.2,5c-0.1,0-19.4,2.1-19.9,2.1v36.2L30,55l19.7-11.7V7.1C49.7,7.1,30.2,5,30.2,5z M47.2,41.8L30,52L12.8,41.8V27l17.1,10.2V39l-11.7-7v1.8L30,40.9v1.9l-11.8-7v1.8l11.8,7l11.9-7.1v-7.6l5.3-3.2V41.8z M47.1,24.8c-1.6,0.9-4.8,2.9-6.9,4.1l-10.3-6.1v1.8l8.8,5.3c-0.5,0.1-0.4,0.2-1.6,0.8l-7.3-4.3v1.8l5.8,3.4l-1.4,0.9l-4.3-2.6v1.8l2.9,1.7l-2.9,1.7L12.9,25l17-10.2C29.9,14.8,47.1,24.8,47.1,24.8z M47.2,23L29.9,12.8L12.8,23V9.4c8.6-1.7,25.7-1.7,34.4,0C47.2,9.4,47.2,23,47.2,23z"/>
</svg>
