<?xml version="1.0" encoding="utf-8"?>
<!-- Generator: Adobe Illustrator 24.0.1, SVG Export Plug-In . SVG Version: 6.00 Build 0)  -->
<svg version="1.1" id="Layer_1" xmlns="http://www.w3.org/2000/svg" xmlns:xlink="http://www.w3.org/1999/xlink" x="0px" y="0px"
	 viewBox="0 0 15 27.7" style="enable-background:new 0 0 15 27.7;" xml:space="preserve">
<style type="text/css">
	.st0{fill:#231F20;}
</style>
<g id="facebook">
	<g>
		<path class="st0" d="M11.7,5.2c1,0,2,0,2.7-0.3c0.4-0.8,0.6-1.9,0.6-3c-0.2,0-0.1-0.3-0.2-0.4c0-0.2-0.3-0.2-0.3-0.4
			C12.6-0.5,6.2-0.7,3.6,2.7C3.4,4,3,4.9,3.6,9.7c-1,0.3-2.2,0.4-3.4,0.5c-0.1,0.5-0.6,0,0.2,3.3c1.2,0.6,0.4,0.8,3.2,0.7
			c0.1,2.4-0.4,2.2,0.4,9.2c-0.3,0.5-0.5,1-0.4,1.8c0.2,0.5-0.1,0.4,0.6,1c0.3,0.8-0.6-0.6-0.4,1.4c0.1,0.1,1.7,0.8,5.1-1
			c0.5,0.2,0.9,0,1.2-0.2c0.4-3.5-0.1-6.5-0.2-11.7c0.2-1.1,2.2,2.4,3.3-3.3c0.5-1.1-0.4-3.4-3.7-2.2c0-1.1-0.3-2.3,0-3.4
			C10.2,5.6,10.9,5.4,11.7,5.2z M7.8,10c0.1,0.3,0.3,0.5,0.4,0.7c0.1,0,0.2,0,0.2,0.1c1.2,0.1,2.2-0.1,3.1-0.3c0,1-0.3,1.7-0.5,2.5
			c-0.7,0-1.5,0.3-2,0.2c-0.3,0.2-0.4,0.5-0.6,0.7c0,0.4,0.1,0.5,0,0.8c-0.2,0.1-0.1,0.6-0.2,0.8c-0.1,2.9-0.2,6.2,0.1,9.9
			C8.1,25.8,8,25,6,25.8c-0.2-0.1,1-1-0.2-1.6c0.1-1,0.3,0.6,1-3.6C6.3,20.5,6.3,20.9,6,21c0,0.1,0,0.2-0.1,0.2c0,0.1,0,0.2-0.1,0.2
			c0,0.1-0.2,0.1,0,0c0-0.1,0-0.2,0.1-0.2c0-0.1,0-0.2,0.1-0.2v-0.3c0.1-0.6,0.7-0.3,1.3-4.2c-0.5,0-0.8,0.3-0.9,0.7
			c-0.3-0.2,0.2-0.4,0.1-0.7C7.2,16,7,12.8,5.6,15.4c-0.6-0.9,0.7-3.7-3.4-2.6c-0.1-0.3-0.2-1-0.1-1.2c1-0.1,2.5,0.2,3.2-0.2
			c0-0.1,0-0.2,0.1-0.2c0.1-0.7-0.3-1-0.5-1.4c0.2-0.8,0-2,0.1-3c0.2-0.1,0.3-0.4,0.5-0.6c0.1-1,0.7-1.5,0.7-2.5
			c-0.3,0-0.6-0.1-0.6,0.2C5.2,3.8,4.7,4.4,5.4,3.1c1.6-1.4,4.4-1.8,7.9-1C13.4,2.7,13,3,13.1,3.6c-1.2,0-2.6-0.2-5.1,1.4
			C7.7,6.2,7.7,7,7.8,10z"/>
	</g>
</g>
</svg>
