<svg version="1.1" id="Layer_1" xmlns="http://www.w3.org/2000/svg" xmlns:xlink="http://www.w3.org/1999/xlink" x="0px" y="0px" viewBox="0 0 23.5 20.2" style="enable-background:new 0 0 23.5 20.2;" xml:space="preserve">
  <path class="st0" d="M23.5,4.1c-0.4-0.3,0.1-0.3-2.5-0.4c0.1-0.5,0.5-0.2,0.7-2.2c0.9-2.2-0.1-1.4-3.1,0.9c-1.2-0.5-5-0.6-7,2c-0.1,0.3,0,0-0.4,0.8c0.1,0.3-0.1,0.1-0.1,1c-0.7-0.7-1,0.9-6.7-4.3C4,2,3.7,0.1,2.7,2C3,2.9,1.4,3.8,2.8,6.3c-1.2,0.3-1,1.9,0.4,3.8c0,0.2,0.1,0.1,0.4,0.7C4,11.3,1.4,11,2.8,13c0.9,0.2-0.7,0.6,3.5,1.5c1.1,1.6-7.1,0.5-5.8,3c0,0.3,0.2,0.3,0.4,0.4c1.5,0.4-0.7,2,10.5,2.3c1.6-0.4,4.7-1.6,6.7-4.8c0.8-1,0.5-0.1,2.5-3.6c0-0.4,0.3-0.5,0.3-0.9c0.2-0.2,0.2-0.7,0.4-0.9c0.1-1.1,0.2-1.7-0.2-4C21.3,5.3,21.8,6.9,23.5,4.1z M20,8.2c-0.2,0.9-0.6,1.4-1,2c0.1,0.4-0.1,0.5-0.1,0.9c-0.6,0.5-0.3,4.1-7.4,7.6c-2.9-0.4-1.6,1.6-8.9-1.3c0.2-0.2,0.6-0.2,1-0.2C3.6,17,4,17.1,4,17c0.7-0.3,0.5,0.5,2.9-1.3c0-0.2,0.1-0.3,0.2-0.4c0-0.3,0.2-0.4,0.1-0.8c-0.1-0.1,0.6-0.4,0-1c0-0.2-0.4-0.1-0.4-0.2c-0.3,0-0.2-0.1-1.1-0.1c-0.8,0-1.3-0.4-1.9-0.7c0.4-0.3,1-0.4,1.3-0.7c2-0.7,0-0.6-2-4C3.5,7.4,3.8,7.3,4,7.1C4.7,6.9,5,6.4,3.4,5c0-0.8,0-1.7,0.1-2.4c0.7,0.1,1.2,3.9,8.3,4.6C11.1,3.3,21,0,20,8.2z M20.3,2.5c-0.1,0.3-0.2,0.7-0.6,0.8C19.6,2.9,19.5,3.1,20.3,2.5C20.3,2.4,20.4,2.5,20.3,2.5z M14.9,5.6c0.2,0.1,0.3,0.3,0.5,0.4c0.1,0.2,0.3,0.3,0.6,0.4c0-0.2,0.3,0,0.4-0.2c0.2,0,0.2-0.2,0.3-0.3C16.7,5,15.5,3.2,14.9,5.6z"/>
</svg>
