<?xml version="1.0" encoding="utf-8"?>
<svg version="1.1" id="Laag_1" xmlns="http://www.w3.org/2000/svg" xmlns:xlink="http://www.w3.org/1999/xlink" x="0px" y="0px"
	 viewBox="0 0 100.7 76.9" style="enable-background:new 0 0 100.7 76.9;" xml:space="preserve">
<style type="text/css">
	.st0{fill:#63D1BB;}
	.st1{fill:#FFFFFF;}
</style>
<g>
	<g>
		<path d="M97,18.1C97.5-8.2,25.8,5.8,14.5,4.1C-4.2,5.8,1.5,68,9.4,70.5C112,85.4,98.4,66.8,97,18.1z"/>
		<path d="M50.3,76.9C39.7,75.1,4.8,82.4,1.7,62.8C-0.6,47-5.3,2.6,14.8,1.2c83.2-3.8,85.2-3.8,85.8,33.3
			C104.9,90,76.7,73.7,50.3,76.9L50.3,76.9z M18.4,70.4C98.6,73,94,74.1,95.2,42.3c-1.2-13.5,2.7-25.2-6-34.1
			C62.6,3.7,2.1,0,6.3,19.2C5.9,38.5,0.6,71,18.4,70.4z"/>
	</g>
</g>
<g>
	<polygon class="st1" points="38.4,20.6 38.4,56.3 68.2,38.4 	"/>
</g>
</svg>
