<svg version="1.1" id="Layer_1" xmlns="http://www.w3.org/2000/svg" xmlns:xlink="http://www.w3.org/1999/xlink" x="0px" y="0px" viewBox="0 0 66 100.8" style="enable-background:new 0 0 66 100.8;" xml:space="preserve">
  <path fill="#FFFFFF" d="M56.3,9.2C43.4-3.1,22.6-3.1,9.7,9.2c-12.9,12.3-12.9,32.2,0,44.5c0,0,23.3,21.8,23.3,47c0-25.2,23.3-47,23.3-47C69.2,41.5,69.2,21.5,56.3,9.2z"/>
  <path fill="#6bc5b3" d="M47,45.5c-0.4-9.5,0.2-19.2-1.1-30.6c1.8-2.6-6.3-2.2-5.5,1.4c-1.3,5.9-2.7,10.8-5.5,18.1c-2.5-4.4-5.1-12.6-8.3-19c-11.1-8.5-3.7,25.3-4.9,32.6c6.6,11.6,5.7-11.9,4.9-18.1c1.3,3.9,4.3,7.8,5.8,13.7c-1.6,1.3,4.2,4.2,5.6-1.1c0.9-1.9,0.3-3.2,3.2-11.3C40,35.8,43.3,66.6,47,45.5z"/>
</svg>
