<xml version="1.0" encoding="utf-8">
<svg version="1.1" id="Layer_1" xmlns="http://www.w3.org/2000/svg" xmlns:xlink="http://www.w3.org/1999/xlink" x="0px" y="0px"viewBox="0 0 60 59.6" style="enable-background:new 0 0 60 59.6;" xml:space="preserve">
<path d="M0,43.7l27.4,15.9V36.3L0,20.3V43.7z M51.3,12.4c2.1,8.1-18.9,7.7-15.5-1.6h0c4.8,8,27.4-2,6.7-3.5l-5-2.9c3.1,7.3-17,9.9-15.5,0.1l-4.8,2.8C-3,8.8,18.2,18.9,24,10.8h0c3.4,9.5-17,9.7-15.5,1.6l-6,3.5l27.5,16L57.5,16L51.3,12.4zM37.7,22.6c-1.6,5.1-18.6,4.6-15.5-4.1h0c0.2,3.2,13.7,4.5,15.4,0h0L37.7,22.6L37.7,22.6z M32.6,36.5v23.1L60,43.7V20.5L32.6,36.5zM29.9,6.6c10.5-0.3,10.2-7.4-2.4-6.4C20,1.2,20.6,6.2,29.9,6.6"/>
</svg>
