<xml version="1.0" encoding="utf-8">
<svg version="1.1" id="Layer_1" xmlns="http://www.w3.org/2000/svg" xmlns:xlink="http://www.w3.org/1999/xlink" x="0px" y="0px" viewBox="0 0 32.7 32.5" style="enable-background:new 0 0 32.7 32.5;" xml:space="preserve">
<path d="M2.9,32.5h12.5V18.6H2.9V32.5z M31.1,8.9h-7.3C32,5.7,24-7.3,16.3,5.4C15.4-2-2.4-0.9,8.2,8.9c-9.6-0.9-8,0.8-8.2,7.5h15.4V8.9h1.9v7.5h15.4C32.1,14.2,34.1,9.7,31.1,8.9 M8.7,6.5C4.6,5.1,10.6-3,14.9,8.3C11.9,7.9,9.9,7.3,8.7,6.5 M19.3,4.9c1.7-5.1,12.8-0.2-1.6,3.5C18,7.2,18.5,5.9,19.3,4.9 M17.3,32.5h12.5V18.6H17.3V32.5z"/>
</svg>
