<svg version="1.1" id="Layer_1" xmlns="http://www.w3.org/2000/svg" xmlns:xlink="http://www.w3.org/1999/xlink" x="0px" y="0px" viewBox="0 0 32 37.3" style="enable-background:new 0 0 32 37.3;" xml:space="preserve">
  <path fill="#63d1bb" d="M16,37.3c8.8,0,16-7.2,16-16C23.1,21.3,16,28.5,16,37.3z M4.6,16.4c0.9,2.5,1.9,6,7,3.7c-0.7,4.9,8.6,7,8.8,0c3.4,3,10.8-4,4.4-7.7c3.9-1.7,3-11-4.4-7.7c0.7-4.9-8.6-7-8.8,0c-3.4-3-10.8,4-4.4,7.7C5.7,13.1,4.6,14.7,4.6,16.4z M16,8c4.6-0.1,6.5,8,0,8.9C11.4,16.9,9.5,8.9,16,8z M0,21.3c0,8.8,7.2,16,16,16C16,28.5,8.8,21.3,0,21.3z"/>
</svg>
