<xml version="1.0" encoding="utf-8">
<svg version="1.1" id="Layer_1" xmlns="http://www.w3.org/2000/svg" xmlns:xlink="http://www.w3.org/1999/xlink" x="0px" y="0px" viewBox="0 0 21.8 21.3" style="enable-background:new 0 0 21.8 21.3;" xml:space="preserve">
  <path d="M21.8,12.1c-0.2-3.4,0-4.5-0.6-10.5c1-0.9-10.1-2.5-20.5-1c0.1,16-7,24.7,20.7,19.4C21.9,18.1,21.7,16.1,21.8,12.1z M8.8,5.9c0.9,0.2,0-0.8,4.3,0.2c0.1,0.2-0.2,0.5,0.2,0.7v0.1c0.1,0,0.1,0,0.2,0.1c0.4,0,0.4,0.3,2.2,0.7c-0.2,1.5,0.4,1.8,0.2,5.1c-0.4,0.6-0.2,0.6-1.1,1.7c-0.4,0.1-0.3,1.4-1.7,1c-0.4,0.2-0.9,0.3-1.2,0.6c-0.3-0.2-1.6,0.3-4.3-1.2c-0.1-0.1-0.2,0-1-0.4C6,12.6,4.5,10.2,7.3,6.7c0.2,0,0.4-0.1,0.4-0.3C7.9,6.3,8.1,6.8,8.8,5.9zM7.1,3.2c-0.2,0,0.1-1.1,0.1-1.7c0.1-0.1,1.6,0,0.3,0.7c0,0.2,0.3,0,0.5,0.1c0,0.9-0.1,1.5,0,2.2H7.5c0,0.2,0.2,0.2,0.5,0.2C7.9,5,8,5.1,8,5.3C7.8,5.5,7.3,5.4,7,5.4C6.9,4.8,7.2,4,7.1,3.2z M6.4,1.6c0.4,0.3,0.2,0,0.1,1C6.3,2.4,6.5,1.9,6.4,1.6zM6.6,3.4C6.5,3.3,6.4,3.2,6.4,3C6.6,3,6.6,3.2,6.6,3.4z M6.6,4.8c-0.1,0.1-0.1,0-0.1-0.2C6.6,4.5,6.6,4.7,6.6,4.8z M6.4,5c0.2,0,0.1,0.2,0.2,0.2c0,0.2-0.3,0.2-0.4,0.1C6.3,5.2,6.4,5.1,6.4,5z M4.1,3.8c0-0.1,0-0.2-0.1-0.2c-0.1-0.7,0.1-1.4,0-2c0.3-0.2,0.8,0,1.1-0.1C4.9,1.2,5.5,2.4,4.8,2.7c0.6,1,0.3,0.1,0.5,2.7c-0.6,0-0.9,0.2-1.5,0.1C3.6,5,4.3,5.3,4.1,3.8z M3.5,3.8c-0.2,0-0.2-0.5-0.1-0.6C3.8,3.2,3.7,3.7,3.5,3.8z M3.4,4.8c0.1-0.3,0-0.3,0.1-0.7C3.7,4.1,3.7,4.9,3.4,4.8z M3.6,2.7C3.4,2.8,3.3,2.5,3.5,2.4C3.7,2.3,3.7,2.6,3.6,2.7z M3.6,1.6c0,0.2-0.1,0.2-0.1,0.3c-0.2,0-0.1-0.2-0.2-0.2C3.3,1.6,3.5,1.6,3.6,1.6z M3.4,5.3c0.1,0,0.1,0.3-0.1,0.2C3.4,5.5,3.4,5.4,3.4,5.3z M2.7,1.6c0,0.3-0.4,0.3-0.4,0H2.7z M1.7,1.7c0,0.2-0.3,0.2-0.4,0.4C1.1,1.9,1.4,1.6,1.7,1.7z M1.3,2.4C1.5,2.2,1.7,2,2,1.8C1.9,1.7,2,1.7,2,1.6h0.2C2.3,2.2,1.6,1.8,2,3.3c-0.3,0-0.3,0.3-0.6,0.2C1.4,3.1,1.2,2.9,1.3,2.4z M1.3,5.7V4.1C1.5,3.9,1.7,3.7,2,3.6C2.2,4.1,2.1,5,2.4,5.5C2.1,5.6,1.7,5.6,1.3,5.7z M19.6,16.8c-0.1,1-0.2,2-0.4,2.8c-0.9,0.1-5.4-0.2-9.6,0.1c0.2-0.3,0.4-0.9,0.2-1.3c-0.8,0-0.8,0.8-1.1,1.3c-0.7-0.1-1.1,0.1-1.8,0.1c0.2-0.7,0.8-1,0.9-1.7c-0.3-0.2-0.4-0.7-2,1.7h-1c0.3-0.7-0.1,0.3,1.4-2.7c-0.2-0.3-0.4,0-0.7,0C4.9,17.9,5.2,18,2.9,20c-0.2-0.1,0-0.4,0.2-0.4C3.1,19.4,3,19,3.2,19c0.4-1.1,0.3-0.7,1.1-2.8c-0.6,0.4-0.1-0.4-1.7,2.3c-0.5-0.6,0.7-2,0.5-4.2c-0.2,0-0.4,0.1-0.5,0.3c-0.9,0.1-0.1-4.8-1-7.8c1.6,0,3.1,0.1,4.8,0.2C-2.6,18.7,24,22,16,6.7c0.5-0.3,0,0.2,3.8,0.1C20,9.7,20.1,9,19.6,16.8z M19.9,5.6c-0.6-0.1-1.2-0.3-1.9-0.4C18.8,6,21.4,0.9,16.5,2c0.9,0.1-2.3,1.6,1.2,3.1c-2.4,0.1-4.5-0.2-8.5,0.1C9.3,4,9.3,2.7,9.1,1.6h3.1c-0.4,0.6,0.1-0.3-2.4,1.7c2.5-0.9,1.9-2.4,10.1-1.3C20.3,3.5,20.3,2.6,19.9,5.6z M14.1,1.9C14.2,1.9,14.1,1.8,14.1,1.9L14.1,1.9z M14.1,1.9c-0.5,0.2-1,0.3-1.4,0.7C13.2,2.4,13.8,2.3,14.1,1.9z M15.2,2.5C15.3,2.5,15.2,2.4,15.2,2.5L15.2,2.5z M13.4,3.4c0.7-0.2,1.2-0.6,1.7-0.9c-0.4,0-0.6,0.3-1,0.4C14,3.1,13.6,3.1,13.4,3.4z M12.7,2.6C12.6,2.6,12.7,2.7,12.7,2.6L12.7,2.6zM12,3.2C12.2,3.1,12,3.1,12,3.2L12,3.2z M12,3.3C12,3.3,12,3.2,12,3.3C12,3.2,12,3.2,12,3.3z M11.9,3.3C12,3.4,12,3.3,11.9,3.3L11.9,3.3z M11.1,3.9c0.3-0.1,0.6-0.3,0.8-0.6C11.5,3.5,11.3,3.7,11.1,3.9z M13.3,4.9c0.5,0,0.7-0.4,1.2-0.5c0.3-0.3,0.8-0.4,1-0.8C15,3.7,15.1,3.7,13.3,4.9z M11.1,3.9C10.7,3.9,11,4.2,11.1,3.9L11.1,3.9z M10.5,4.3C10.6,4.3,10.6,4.3,10.5,4.3C10.6,4.2,10.5,4.3,10.5,4.3z M13.3,4.9C13.2,5,13.3,5,13.3,4.9L13.3,4.9z M12.2,6.8c-0.8-0.6-3.3-0.5-5.1,1.4c0.1,0.2-0.3,0.2-0.6,1.1c-0.7,3,3.2,9.5,8.4,3.8C15,12.4,16,7.1,12.2,6.8z M8.8,11.1c-0.1-0.1-0.1-0.2-0.2-0.4C8.9,10.6,8.8,10.9,8.8,11.1z M8.9,11.4C8.9,11.3,8.9,11.4,8.9,11.4C8.9,11.6,8.9,11.5,8.9,11.4zM9.3,9.3C9.3,9.3,9.4,9.3,9.3,9.3C9.4,9.4,9.3,9.4,9.3,9.3z M11,7.2c-0.2,0.3,0,0.6,0.1,0.8C10.8,8,10.5,7.2,11,7.2z M11.4,11.2C11.3,11.1,11.4,11.1,11.4,11.2C11.5,11.1,11.4,11.2,11.4,11.2z M12.1,14c0-0.1,0.1,0,0.2,0C12.3,14.1,12.1,14.1,12.1,14zM14.3,11.5c-0.2-0.1-0.1,0.2-0.4,0.2c0.1-0.2,0.1-0.3,0.2-0.5C14.3,11.2,14.3,11.3,14.3,11.5z M13.2,7.7c0.2,0.2,0.3,0,1,0.9c0.1,0.8,0.2,1.5,0.2,2.4c-1.1,0.4-0.5,0.6-2.6-0.1c-0.4-0.5-1-1.3,0.3-3.3C12.5,7.7,12.4,8,13.2,7.7z"/>
</svg>
