<xml version="1.0" encoding="utf-8">
<svg version="1.1" id="Слой_1" xmlns="http://www.w3.org/2000/svg" xmlns:xlink="http://www.w3.org/1999/xlink" x="0px" y="0px"
	 viewBox="0 0 148.1 72.7" style="enable-background:new 0 0 148.1 72.7;" xml:space="preserve">
<style type="text/css">
	.st0{fill:#FFFFFF;}
</style>
<g id="Layer_2">
	<g>
		<path d="M143.2,31.4c-1.5,1.1-3.1,1.9-4.7,2.8c-1.6-2.5,2.6-16-4.4-15.1c-0.2-0.2-0.3-0.3-0.5-0.4c-0.2-0.1,0.2-0.5-0.6-1c0.2-0.2,0.1-1.1-1.7-1.6c-0.9-0.3-1.9-0.5-2.9-0.7c2.6-2.3,1.3-5.2-2.6-0.3c-2-0.2-4.1-0.2-6.1-0.1c0.2-1.4-1.4-0.5-5.7-0.1c9.3-21.7-18.4-18-20.3-0.1c-0.7-0.6-2.8-0.2-3.4,2.2c-0.1,0-0.1,0-0.2,0c0-0.1,0-0.2,0.1-0.3c2.4-2.7,2-13.4-1.7-3.1c-0.1,0.1-0.1,0-0.5,0.4c-0.1-0.1-0.3-0.2-0.5-0.2c0.7-1.1-3.5-2.1-2.8,1.4c-0.6,0.2-1.7,1.6,0,1.4c0,0.2,0,0.3,0,0.5c-0.3,0,0,0.1-1.1-0.1c0-0.4-0.7-0.5-1.4-0.3c-0.1-0.8,0,0-0.2-1.9c0.5,0,1.9-1.5-0.1-1.1c1-4.7-4.2-6.9-2.7,2.2c-0.1,0-0.2,0-0.3,0c-0.1-0.9,0.6-3-2.1-2.3c1.9-9.7-8.7-4.3-0.3,0.2c-0.1,0.2-0.4,0.2-0.4,1.4c-0.8-0.2-2-0.3-2.2,1.3c-0.2,0-0.3-0.1-0.5-0.1c-0.9-0.6,0.7-5.2-2.8-4.5c0.6-2-4.7-5.8-3.1,0c-0.4,0.1,0,0-0.9,0.4c-0.8,0.5-2.2,0.1-1.5,2.6C64.6,15,64,15,63.5,15.1c-0.4,0.1,0.3-4.2-3-2.7C58.2,0,33.7-2.2,41.5,16.3c-5.2,2.5-15.4-2.6-21.5,1c-1,0.5-1.7,1.3-2.1,2.3c-2.9-4.3-15-2.9-0.3,1.1c-0.1,0.9-0.4,2,0.4,4.8c0,0.3,0,0,0,1.2c-1,0.8-0.9,1.9-1.1,5.1c-2,6,1.7,15,1.1,23.5c-1.7,0.6-1.6,2.1,1.4,4.3c-4.6,0-6.3,8.7,0.6,0.4c3.2,1.7,7.2,1.3,11.1,0.9c-2.9,3.2-1.2,10.1,2.7-0.3c3.7,0.1,7.5,0.1,11.2,0.1c14,0.4,31.2-2.2,47.4-1.5c1.8,1.1,0,0.4,6.5,1.1c2.9,1,7,0.6,12.2,1.1c4.3,0.7,21.8,3.2,21.8-2.4c0.8-1.8,1.8-4.4,3-8.6c1.4-2.6,0.5-3,2.5-13.7C138.8,36.1,149.4,31.3,143.2,31.4z M87.8,16.4c0,0-0.1,0.1-0.1,0.1c0.1-0.3,0.1-0.6,0.2-0.9c0,0,0.1,0,0.1,0C88,15.8,87.9,16.1,87.8,16.4z"/>
		<path d="M63.3,12.6c2.2,1.7,4.1-3.6-0.2-2.8C62.6,10.5,61.8,10.7,63.3,12.6z"/>
		<path d="M20.7,10.9c0.8,2.1,5.7-2.6,0-2.7C20.8,8.6,19.4,8,20.7,10.9z"/>
		<path d="M30.7,13.9c0.8,0,3.1-1.3,1.2-1.3C31,12.6,28.8,13.9,30.7,13.9z"/>
		<path d="M122.6,12.3c1.1,0.9,5.3-3.3,1.1-2.3C123.4,10.2,121,11.6,122.6,12.3z"/>
		<path d="M135.9,17.7c1.2-0.1,5-2.4,5.1-4.6C139.4,12.8,135.1,16.3,135.9,17.7z"/>
		<path d="M146.7,44.8c-1.9-1.1-10.6,2-2.7,2.1C144,46.9,150.2,47.3,146.7,44.8z"/>
		<path d="M57,60.8c-1.6-0.5-5.3,7.4-0.2,4.3C56.2,64.8,59.8,60.7,57,60.8z"/>
		<path d="M61.6,63.4c-0.3,0.1-2.3,0-2.5,1.6c0,0,0,0,0,0C58.5,65.9,63.7,64.6,61.6,63.4z"/>
		<path d="M116.7,67.1c-5.1-2-1,7.8,2.9,4.7C119,70.8,118.5,70.1,116.7,67.1z"/>
		<path d="M120.7,64.7C121.5,66.3,121.9,67.1,120.7,64.7C116.9,62,118.3,71.2,120.7,64.7z"/>
		<path d="M5.7,43.1c-0.4-0.2-8.6,1.9-4,2.9C2.1,46.1,10.3,44.1,5.7,43.1z"/>
	</g>
</g>
<g id="Layer_1">
	<g>
		<path class="st0" d="M43.8,40.1c-0.5-3.7-0.1-9-0.8-14.7c1.4-1.9-4.4-1.6-4,1c-0.6,3-2,8-4,13.1c-1.9-3.4-3.4-8.4-6-13.7c-7.5-5.9-3.1,13.7-3.5,23.5c4.2,8,4.4-7.2,3.6-13c0.6,2.1,1.9,2.9,4.2,9.9c-1.1,1.6,3.8,2.4,4-0.8c0.7-1.7,0.5-3.5,2.3-8.1C38,43,43.5,67.4,43.8,40.1z"/>
		<path class="st0" d="M52.2,40.8c0.8-4.5-3.8-23.7-4.7-5.4C46.4,41,52.3,65.8,52.2,40.8z"/>
		<path class="st0" d="M68.7,37.4c-6.9-3.8-14.1,1.7-8.7-12.4c3.9-1.2,4,2.5,6.9,2.9C78.2,24,46.2,16,56,37.2c19.6-1.6,6.1,26.4,3.4,7.4c-1.2,0-2.2,0.3-3.3,1.4C53.8,58,76,54.7,68.7,37.4z"/>
		<path class="st0" d="M86.2,37.2c0.8-15.6-6.7-17.7-4,0c-2,0-3.9,0.2-5.9,0.2C77.8,33,73.5,12.7,72,30c-1.6,9.2,3.8,37.7,4.2,9.3c2-0.1,4.1-0.3,6.1,0C81.2,54,88.8,58.4,86.2,37.2z"/>
		<path class="st0" d="M103.2,41.8c-0.9-2.8-2.4-5.2-3.6-7.9c6.3-8.7,7.5-21.9-3.4-0.4c-0.5,0.3-0.8,0.8-0.6,1.3c-0.8,1.6-1.6,3.1-2.5,4.7c-1.8-33.3-6.9-11.1-3.8,5.1c-0.4,0.4-0.1,0,0,0.7c-2,5.1,4.4,12,4-1.3c1.6-1.7,2.9-3.7,4.1-5.7C97.9,44.7,111.1,62.7,103.2,41.8z"/>
		<path class="st0" d="M127,37.1c-0.2-0.8-1.4-0.9-2.3-0.8c1.8-11.7-5.6-17.9-16-7.2c-3.9,8.8,4,38.6,3.7,9.9c2.5-0.8,4.3,0.7,8.4-0.2c-1.8,11.1,5,20.5,4-0.1C125.9,38.7,127.2,37.9,127,37.1z M112.2,36.9c-3-11,9.9-19.6,8.5-0.1C118.4,37,116.1,36.6,112.2,36.9z"/>
		<path class="st0" d="M48.8,25.2c5.9,0.4-1.2-14.4-1.8-2.2c-0.1,0.3-0.2,0.3,0,1C47.2,24.7,46.7,25,48.8,25.2z"/>
	</g>
</g>
</svg>
