<svg version="1.1" id="Layer_1" xmlns="http://www.w3.org/2000/svg" xmlns:xlink="http://www.w3.org/1999/xlink" x="0px" y="0px" viewBox="0 0 101.6 34.1" style="enable-background:new 0 0 101.6 34.1;" xml:space="preserve">
  <g>
    <path d="M19.1,21.5C18.7,17.8,19,12.6,18.3,7c1.4-1.9-4.3-1.6-3.9,1c-0.6,2.9-2,7.9-3.9,12.9C8.5,17.5,7,12.5,4.5,7.3C-2.9,1.5,1.4,20.9,1,30.6c4.2,7.9,4.4-7.1,3.5-12.9c0.6,2.1,1.8,2.8,4.2,9.8c-1.1,1.6,3.8,2.3,4-0.8c0.7-1.7,0.5-3.4,2.3-8.1C13.4,24.4,18.9,48.5,19.1,21.5z"/>
    <path d="M27.5,22.2c0.8-4.5-3.8-23.5-4.7-5.4C21.7,22.4,27.6,47,27.5,22.2z"/>
    <path d="M43.8,18.9c-6.9-3.7-13.9,1.7-8.7-12.3c3.3-2,7.5,7,9,0.4c-7.6-7-19.3,0.9-12.9,11.7c19.4-1.6,6.1,26.2,3.4,7.3c-1.1,0-2.2,0.3-3.2,1.4C29.1,39.3,51.1,35.9,43.8,18.9z"/>
    <path d="M61.2,18.7c0.8-15.4-6.7-17.5-4,0c-1.9,0-3.9,0.2-5.9,0.2c1.9-13-5.7-22.8-3.9-2.8c-2.2,7.4,4.2,30.9,3.8,4.6c2-0.1,4.1-0.3,6.1,0C56.2,35.3,63.8,39.6,61.2,18.7z"/>
    <path d="M78.1,23.1c-0.9-2.8-2.4-5.2-3.6-7.8c6.3-8.6,7.5-21.7-3.4-0.4c-0.5,0.3-0.8,0.8-0.6,1.3c-0.8,1.6-1.6,3.1-2.5,4.6c-1.8-33-6.8-11-3.8,5c-0.4,0.4-0.1,0,0,0.7c-2,5.1,4.3,11.9,3.9-1.3c1.6-1.7,2.9-3.6,4.1-5.6C72.8,26,85.8,43.8,78.1,23.1z"/>
    <path d="M101.6,18.5c-0.2-0.8-1.4-0.8-2.3-0.8c1.9-11.2-5.7-17.9-15.9-7.1c-3.9,8.7,3.9,38.3,3.7,9.8c4-0.8,1.9,0.8,8.3-0.2c-1.8,11,4.9,20.3,4-0.1C100.5,20.1,101.8,19.4,101.6,18.5z M87,18.4c-3-10.9,9.8-19.4,8.4-0.1C93.1,18.4,90.8,18,87,18.4z"/>
    <path d="M24.1,6.7c5.8,0.4-1.2-14.3-1.8-2.2c-0.1,0.3-0.2,0.3,0,0.9C22.6,6.2,22,6.5,24.1,6.7z"/>
  </g>
</svg>
