<svg width="0" height="0" class="hidden">
  <symbol xmlns="http://www.w3.org/2000/svg" viewBox="0 0 1150 34" id="bg-zigzag-fill">
    <path d="M1121.3 0c-5-.1-8.8 2.1-11.9 4.7-27.1 26-27.1-8.8-49.9-4.2-45.4 33.8-28-7.8-61 1.3-41 37.3-31.9-27.3-70.7 10.5-25.1 10-27.2-31-54.6-1.9-3.9 2.6-6.2 3.8-12.9 3.5-50.8-32.6-25.8 3.4-61.3-.9-43.5-38.1-30.4 23.6-69.9-8.8-4.8-3-7.9-3.9-11.3-4.3C696.4 2 706 29.4 662.9 0c-6.5.4-7.2-.3-14.1 5.6-23 21.1-26.4-1.3-40.9-5-4.5-.1-6.1-2.7-13.8 3.6-40.3 31.8-31.1-28.3-67.2 7.2-23 11.1-26.4-19.6-45.8-9.4-44.5 36.8-24.6-27.6-75.8 11.8-28.1.5-14.6-31-57.2 0-31.7-1.2-8.9-28.2-59.4-.8-17.8 2.8-19.2-19.5-35.9-11.7C213.7 36 211.6-21.8 185 9.2c-28.1 18.8-29.1-30.1-62.6 2.7-3.3 2.1-6.9 3-11.4 1.7-34.4-29.2-36.5 2.2-58.9 0C18.5-16 20 12.4 0 14v20h1150V14c-14.4 0-14.4-14-28.7-14z"
      fill="#fff"></path>
  </symbol>
  <symbol xmlns="http://www.w3.org/2000/svg" viewBox="0 0 1150 23" id="bg-zigzag-line">
    <path d="M1150 23c-5.6.1-10.3-2.2-13.8-4.9-24.2-27.4-28.8 18.5-56 1.1-30.4-32.2-30.8 28.2-65.9-7.5-3.7-2.2-4.4-3-10.4-2.6-47.1 35.8-36.1-10.8-63 2.6-36.2 35.1-38.2-24.2-64.5 6.4-3.4 2.7-7 4.4-13.8 4.9-5.3.1-10.5-2.2-13.8-4.9-24.2-27-27.2 16.3-54.4 2.1C754-14.9 776.1 48.8 718.8 9c-53.4 34-33.9-6-63.8 1.6-44.7 38.4-31.1-26.4-72.9 11.3-22.8 8.1-27.8-24.2-45.4-8.8-4.7 4.4-7.9 8.4-16.6 9.7-14.8 1.7-17.6-8.4-26.8-13.1-29-2.5-12.8 31.4-62-.7-53 35.2-36.5-10.1-65.5 2.8-36.3 35.1-38.2-24.2-64.5 6.4-3.4 2.7-7 4.4-13.8 4.9-4.9 0-10.5-2-13.8-4.9-24.5-27-27.3 16.4-54.5 2.1C178.7-15 201.4 48.8 143.8 9c-52.8 35.2-37-10.2-65.5 2.8C42.2 46.9 40-12.4 13.8 18.2c-3.4 2.7-7 4.4-13.8 4.9v-9c53.6-35.3 35.8 9.9 65.5-2.8 37.1-35.5 37.2 25.3 66-7.5 4.7-2.8 7.1-3.9 14.9-3.6 5.1.6 7.9 2.4 11.2 4.7 24.2 27.4 28.9-18.5 56-1.1 30.5 32.2 30.7-28.2 65.9 7.5 3.7 2.2 4.4 3 10.5 2.6 46.9-35.8 36.2 10.8 63-2.6 36.1-35.1 38.3 24.2 64.5-6.4 3.4-2.7 7-4.4 13.8-4.9 5.1-.1 10.6 2.2 13.8 4.9 24.4 26.5 25.6-14.1 52.7-3 40.7 36.4 27.2-28.7 72.7 11.4 4.5 1.5 8.6.9 12.5-2 32.6-31.3 35.9 11.3 55.8 1.1 39.2-37.2 38.9 23.3 66.1-7.5 3.4-2.7 7-4.5 13.8-4.9 4.9 0 10.4 2 13.8 4.9 24.2 27 27.4-16.4 54.4-2.1C827.5 38 805-25.8 862.5 14c53.1-34 34.3 6.2 63.8-1.6C973-26.2 954 38.7 1001.3.5c6.5-1.5 12.5.1 17.2 3.3 27.3 27.8 24.2-10.6 52.2-2.7 49.9 37.7 18.4-27.5 79.2 12.9v9z"
      fill="#e6e7e8"></path>
  </symbol>
  <symbol xmlns="http://www.w3.org/2000/svg" viewBox="0 0 60 60" id="htmlacademy">
    <path d="M30.2 5c-.1 0-19.4 2.1-19.9 2.1v36.2L30 55l19.7-11.7V7.1L30.2 5zm17 36.8L30 52 12.8 41.8V27l17.1 10.2V39l-11.7-7v1.8L30 40.9v1.9l-11.8-7v1.8l11.8 7 11.9-7.1v-7.6l5.3-3.2v15.1zm-.1-17c-1.6.9-4.8 2.9-6.9 4.1l-10.3-6.1v1.8l8.8 5.3c-.5.1-.4.2-1.6.8l-7.3-4.3v1.8l5.8 3.4-1.4.9-4.3-2.6v1.8l2.9 1.7-2.9 1.7-17-10.1 17-10.2 17.2 10zm.1-1.8L29.9 12.8 12.8 23V9.4c8.6-1.7 25.7-1.7 34.4 0V23z"
      fill="#2e368f"></path>
  </symbol>
  <symbol xmlns="http://www.w3.org/2000/svg" viewBox="264.205 370.961 20.294 18.849" id="icon-cart">
    <path fill="#231F20" d="M283.75 378.19h-3.151l-3.407-6.814a.75.75 0 1 0-1.341.671l3.071 6.143h-9.138l3.072-6.143a.75.75 0 0 0-1.341-.671l-3.407 6.814h-3.151a.75.75 0 0 0 0 1.5h.157l.855 2.991a.737.737 0 0 0-.316.595c0 .396.309.71.697.739l1.656 5.795h12.697l1.656-5.795a.745.745 0 0 0 .698-.739.738.738 0 0 0-.316-.596l.854-2.991h.157a.75.75 0 1 0-.002-1.499zm-4.181 10.121h-10.433l-1.224-4.284h12.881l-1.224 4.284zm1.653-5.785h-13.739l-.81-2.836h15.359l-.81 2.836z"></path>
  </symbol>
  <symbol xmlns="http://www.w3.org/2000/svg" viewBox="0 0 15 27.7" id="icon-fb">
    <path d="M11.7 5.2c1 0 2 0 2.7-.3.4-.8.6-1.9.6-3-.2 0-.1-.3-.2-.4 0-.2-.3-.2-.3-.4C12.6-.5 6.2-.7 3.6 2.7c-.2 1.3-.6 2.2 0 7-1 .3-2.2.4-3.4.5-.1.5-.6 0 .2 3.3 1.2.6.4.8 3.2.7.1 2.4-.4 2.2.4 9.2-.3.5-.5 1-.4 1.8.2.5-.1.4.6 1 .3.8-.6-.6-.4 1.4.1.1 1.7.8 5.1-1 .5.2.9 0 1.2-.2.4-3.5-.1-6.5-.2-11.7.2-1.1 2.2 2.4 3.3-3.3.5-1.1-.4-3.4-3.7-2.2 0-1.1-.3-2.3 0-3.4.7-.2 1.4-.4 2.2-.6zM7.8 10c.1.3.3.5.4.7.1 0 .2 0 .2.1 1.2.1 2.2-.1 3.1-.3 0 1-.3 1.7-.5 2.5-.7 0-1.5.3-2 .2-.3.2-.4.5-.6.7 0 .4.1.5 0 .8-.2.1-.1.6-.2.8-.1 2.9-.2 6.2.1 9.9-.2.4-.3-.4-2.3.4-.2-.1 1-1-.2-1.6.1-1 .3.6 1-3.6-.5-.1-.5.3-.8.4 0 .1 0 .2-.1.2 0 .1 0 .2-.1.2 0 .1-.2.1 0 0 0-.1 0-.2.1-.2 0-.1 0-.2.1-.2v-.3c.1-.6.7-.3 1.3-4.2-.5 0-.8.3-.9.7-.3-.2.2-.4.1-.7.7-.5.5-3.7-.9-1.1-.6-.9.7-3.7-3.4-2.6-.1-.3-.2-1-.1-1.2 1-.1 2.5.2 3.2-.2 0-.1 0-.2.1-.2.1-.7-.3-1-.5-1.4.2-.8 0-2 .1-3 .2-.1.3-.4.5-.6.1-1 .7-1.5.7-2.5-.3 0-.6-.1-.6.2-.4-.1-.9.5-.2-.8 1.6-1.4 4.4-1.8 7.9-1 .1.6-.3.9-.2 1.5-1.2 0-2.6-.2-5.1 1.4-.3 1.2-.3 2-.2 5z"
      fill="#231f20"></path>
  </symbol>
  <symbol xmlns="http://www.w3.org/2000/svg" viewBox="0 0 34.4 34.4" id="icon-feature-ball">
    <path d="M.3 14.1c-.4 2.1-.4 4.2 0 6.3l4.1-3.2-4.1-3.1zM24.4 1.6C19.6-.6 14-.6 9.1 2l7.5 5.6 7.8-6zm9.5 11.6l-4.8 3.7 4.9 3.7c.5-2.4.5-5-.1-7.4zM9.2 32.4c4.8 2.5 10.7 2.7 15.7.1l-8.1-6.1-7.6 6zm-1.3-18L1.7 9.8c-.3.7-.6 1.4-.8 2.1l5.3 4 1.7-1.5zm10.7 10.7l8.3 6.2c.3-.3.3-.2 1.7-1.4l-8.3-6.2-1.7 1.4zm-7.2-13.4L4 6.2c-.5.5-.9 1.1-1.3 1.7l6.9 5.2 1.8-1.4zm10.7 10.7l8.1 6.1c.5-.5.9-1.1 1.3-1.7L23.8 21l-1.7 1.4zM14.9 9L7.2 3.2c-.7.5-.5.3-1.7 1.4l7.7 5.7L14.9 9zm10.7 10.6l7 5.2c.3-.7.6-1.3.9-2l-6.1-4.5-1.8 1.3zm.8-16.9L.9 22.6c.2.7.5 1.4.8 2.1L28.2 4c-.5-.5-1.1-.9-1.8-1.3zm4.3 3.9c-.3-.4-.6-.8-.9-1.1l-27 21c.2.3.2.5 1.3 1.8L31.2 7.2c-.2-.2-.3-.4-.5-.6zM32.3 9L5.6 29.8c.5.5 1.1 1 1.7 1.4l26-20.2c-.3-.7-.6-1.4-1-2z"></path>
  </symbol>
  <symbol xmlns="http://www.w3.org/2000/svg" viewBox="0 0 32 37.3" id="icon-feature-flower">
    <path d="M16 37.3c8.8 0 16-7.2 16-16-8.9 0-16 7.2-16 16zM4.6 16.4c.9 2.5 1.9 6 7 3.7-.7 4.9 8.6 7 8.8 0 3.4 3 10.8-4 4.4-7.7 3.9-1.7 3-11-4.4-7.7.7-4.9-8.6-7-8.8 0-3.4-3-10.8 4-4.4 7.7-1.5.7-2.6 2.3-2.6 4zM16 8c4.6-.1 6.5 8 0 8.9-4.6 0-6.5-8 0-8.9zM0 21.3c0 8.8 7.2 16 16 16 0-8.8-7.2-16-16-16z"
      fill="#63d1bb"></path>
  </symbol>
  <symbol xmlns="http://www.w3.org/2000/svg" viewBox="0 0 32.7 32.5" id="icon-feature-gift">
    <path d="M2.9 32.5h12.5V18.6H2.9v13.9zM31.1 8.9h-7.3c8.2-3.2.2-16.2-7.5-3.5C15.4-2-2.4-.9 8.2 8.9c-9.6-.9-8 .8-8.2 7.5h15.4V8.9h1.9v7.5h15.4c-.6-2.2 1.4-6.7-1.6-7.5M8.7 6.5C4.6 5.1 10.6-3 14.9 8.3c-3-.4-5-1-6.2-1.8m10.6-1.6c1.7-5.1 12.8-.2-1.6 3.5.3-1.2.8-2.5 1.6-3.5m-2 27.6h12.5V18.6H17.3v13.9z"
      fill="#63d1bb"></path>
  </symbol>
  <symbol xmlns="http://www.w3.org/2000/svg" viewBox="47.475 50.071 33.05 27.857" id="icon-feature-heart">
    <path fill="#63d1bb" d="M80.525 58.808a8.736 8.736 0 0 0-8.736-8.736A8.727 8.727 0 0 0 64 54.865a8.727 8.727 0 0 0-7.789-4.793 8.736 8.736 0 0 0-8.736 8.736c0 9.127 14.657 19.121 16.525 19.121 1.869 0 16.525-9.95 16.525-19.121z"></path>
  </symbol>
  <symbol xmlns="http://www.w3.org/2000/svg" viewBox="46.212 56.834 46.575 27.332" id="icon-feature-money">
    <path fill="#63d1bb" d="M88.882 56.834H50.116a3.905 3.905 0 0 0-3.904 3.905V80.26a3.905 3.905 0 0 0 3.904 3.905h38.766a3.906 3.906 0 0 0 3.905-3.905V60.739a3.906 3.906 0 0 0-3.905-3.905zm-39.647 24.95V59.551h40.202v22.233H49.235z"></path>
    <path fill="#63d1bb" d="M53.14 77.88h32.395V63.456H53.14V77.88zM69.5 65.354a5.315 5.315 0 1 1 0 10.63 5.315 5.315 0 0 1 0-10.63z"></path>
  </symbol>
  <symbol xmlns="http://www.w3.org/2000/svg" viewBox="612.532 500.386 54.156 23.183" id="icon-feature-rocket">
    <path d="M652.844 506.098c-3.647-.971-7.839-1.667-12.359-1.666a46.394 46.394 0 0 0-7.71.623l-6.784-4.668-13.456.005 5.811 6.184h8.447c-4.58 1.598-6.759 3.515-6.759 3.515l.002 3.777s2.313 1.912 6.931 3.518l-8.623-.005-5.811 6.188 13.455.002 6.816-4.692c2.261.398 4.822.647 7.681.648 4.522-.001 8.712-.697 12.36-1.667-1.176-1.775-1.915-3.743-1.918-5.877.003-2.141.738-4.112 1.917-5.885zm3.423 1.034c-1.284 1.605-1.969 3.25-1.965 4.84-.007 1.597.677 3.238 1.968 4.847 6.399-2.162 10.419-4.841 10.419-4.841s-4.019-2.68-10.422-4.846z"
      fill="#63d1bb"></path>
  </symbol>
  <symbol xmlns="http://www.w3.org/2000/svg" viewBox="-11.34 -28.346 46.68 81.691" id="icon-flag">
    <path fill="#63D1BB" d="M-3.561-24.455v38.9l38.9-19.451-38.9-19.449zm-7.779 77.801v-81.691h3.805v81.691h-3.805z"></path>
    <path fill="#231F20" d="M-11.34-28.346h3.805v81.691h-3.805z"></path>
  </symbol>
  <symbol xmlns="http://www.w3.org/2000/svg" viewBox="0 0 21.8 21.3" id="icon-insta">
    <path d="M21.8 12.1c-.2-3.4 0-4.5-.6-10.5C22.2.7 11.1-.9.7.6c.1 16-7 24.7 20.7 19.4.5-1.9.3-3.9.4-7.9zm-13-6.2c.9.2 0-.8 4.3.2.1.2-.2.5.2.7v.1c.1 0 .1 0 .2.1.4 0 .4.3 2.2.7-.2 1.5.4 1.8.2 5.1-.4.6-.2.6-1.1 1.7-.4.1-.3 1.4-1.7 1-.4.2-.9.3-1.2.6-.3-.2-1.6.3-4.3-1.2-.1-.1-.2 0-1-.4-.6-1.9-2.1-4.3.7-7.8.2 0 .4-.1.4-.3.2-.1.4.4 1.1-.5zM7.1 3.2c-.2 0 .1-1.1.1-1.7.1-.1 1.6 0 .3.7 0 .2.3 0 .5.1 0 .9-.1 1.5 0 2.2h-.5c0 .2.2.2.5.2-.1.3 0 .4 0 .6-.2.2-.7.1-1 .1-.1-.6.2-1.4.1-2.2zm-.7-1.6c.4.3.2 0 .1 1-.2-.2 0-.7-.1-1zm.2 1.8c-.1-.1-.2-.2-.2-.4.2 0 .2.2.2.4zm0 1.4c-.1.1-.1 0-.1-.2.1-.1.1.1.1.2zm-.2.2c.2 0 .1.2.2.2 0 .2-.3.2-.4.1.1-.1.2-.2.2-.3zM4.1 3.8c0-.1 0-.2-.1-.2-.1-.7.1-1.4 0-2 .3-.2.8 0 1.1-.1-.2-.3.4.9-.3 1.2.6 1 .3.1.5 2.7-.6 0-.9.2-1.5.1-.2-.5.5-.2.3-1.7zm-.6 0c-.2 0-.2-.5-.1-.6.4 0 .3.5.1.6zm-.1 1c.1-.3 0-.3.1-.7.2 0 .2.8-.1.7zm.2-2.1c-.2.1-.3-.2-.1-.3.2-.1.2.2.1.3zm0-1.1c0 .2-.1.2-.1.3-.2 0-.1-.2-.2-.2 0-.1.2-.1.3-.1zm-.2 3.7c.1 0 .1.3-.1.2.1 0 .1-.1.1-.2zm-.7-3.7c0 .3-.4.3-.4 0h.4zm-1 .1c0 .2-.3.2-.4.4-.2-.2.1-.5.4-.4zm-.4.7c.2-.2.4-.4.7-.6-.1-.1 0-.1 0-.2h.2c.1.6-.6.2-.2 1.7-.3 0-.3.3-.6.2 0-.4-.2-.6-.1-1.1zm0 3.3V4.1c.2-.2.4-.4.7-.5.2.5.1 1.4.4 1.9-.3.1-.7.1-1.1.2zm18.3 11.1c-.1 1-.2 2-.4 2.8-.9.1-5.4-.2-9.6.1.2-.3.4-.9.2-1.3-.8 0-.8.8-1.1 1.3-.7-.1-1.1.1-1.8.1.2-.7.8-1 .9-1.7-.3-.2-.4-.7-2 1.7h-1c.3-.7-.1.3 1.4-2.7-.2-.3-.4 0-.7 0-.6.8-.3.9-2.6 2.9-.2-.1 0-.4.2-.4 0-.2-.1-.6.1-.6.4-1.1.3-.7 1.1-2.8-.6.4-.1-.4-1.7 2.3-.5-.6.7-2 .5-4.2-.2 0-.4.1-.5.3-.9.1-.1-4.8-1-7.8 1.6 0 3.1.1 4.8.2-9 11.7 17.6 15 9.6-.3.5-.3 0 .2 3.8.1.2 2.9.3 2.2-.2 10zm.3-11.2c-.6-.1-1.2-.3-1.9-.4.8.8 3.4-4.3-1.5-3.2.9.1-2.3 1.6 1.2 3.1-2.4.1-4.5-.2-8.5.1.1-1.2.1-2.5-.1-3.6h3.1c-.4.6.1-.3-2.4 1.7C12.3 2.4 11.7.9 19.9 2c.4 1.5.4.6 0 3.6zm-5.8-3.7c.1 0 0-.1 0 0zm0 0c-.5.2-1 .3-1.4.7.5-.2 1.1-.3 1.4-.7zm1.1.6c.1 0 0-.1 0 0zm-1.8.9c.7-.2 1.2-.6 1.7-.9-.4 0-.6.3-1 .4-.1.2-.5.2-.7.5zm-.7-.8c-.1 0 0 .1 0 0zm-.7.6c.2-.1 0-.1 0 0zm0 .1s0-.1 0 0c0-.1 0-.1 0 0zm-.1 0c.1.1.1 0 0 0zm-.8.6c.3-.1.6-.3.8-.6-.4.2-.6.4-.8.6zm2.2 1c.5 0 .7-.4 1.2-.5.3-.3.8-.4 1-.8-.5.1-.4.1-2.2 1.3zm-2.2-1c-.4 0-.1.3 0 0zm-.6.4c.1 0 .1 0 0 0 .1-.1 0 0 0 0zm2.8.6c-.1.1 0 .1 0 0zm-1.1 1.9c-.8-.6-3.3-.5-5.1 1.4.1.2-.3.2-.6 1.1-.7 3 3.2 9.5 8.4 3.8.1-.7 1.1-6-2.7-6.3zm-3.4 4.3c-.1-.1-.1-.2-.2-.4.3-.1.2.2.2.4zm.1.3c0-.1 0 0 0 0 0 .2 0 .1 0 0zm.4-2.1s.1 0 0 0c.1.1 0 .1 0 0zM11 7.2c-.2.3 0 .6.1.8-.3 0-.6-.8-.1-.8zm.4 4c-.1-.1 0-.1 0 0 .1-.1 0 0 0 0zm.7 2.8c0-.1.1 0 .2 0 0 .1-.2.1-.2 0zm2.2-2.5c-.2-.1-.1.2-.4.2.1-.2.1-.3.2-.5.2 0 .2.1.2.3zm-1.1-3.8c.2.2.3 0 1 .9.1.8.2 1.5.2 2.4-1.1.4-.5.6-2.6-.1-.4-.5-1-1.3.3-3.3.4.1.3.4 1.1.1z"
      fill="#231f20"></path>
  </symbol>
  <symbol xmlns="http://www.w3.org/2000/svg" viewBox="-259.404 -19.675 40.219 62.411" id="icon-interior">
    <path fill="red" d="M-244.227 18.283c-.286.966-.245 2.191.027 3.639.494 2.635 1.687 6.041 2.358 9.67h5.062c.696-3.641 1.949-7.05 2.471-9.683.287-1.445.33-2.66.041-3.617-.275-.899-.89-1.618-2.021-2.303h-5.997c-1.075.679-1.674 1.391-1.941 2.294zm11.832 19.995h-13.799c-1.293 0-2.299.976-2.299 2.229v2.229h18.397v-2.229c0-1.253-1.006-2.229-2.299-2.229zm7.133-55.724h-11.732c0-1.244-1.015-2.229-2.3-2.229-1.283 0-2.3.985-2.3 2.229h-11.737l-6.073 25.517c.794-.461 1.589-.992 2.632-.992 1.359 0 2.243.818 2.924 1.375.682.557 1.162.849 1.447.849.292.001.769-.287 1.451-.836.681-.548 1.564-1.358 2.915-1.358 1.349 0 2.237.806 2.919 1.354.684.549 1.161.84 1.451.84.146 0 .338-.073.58-.214.242-.141.53-.353.872-.626.512-.411 1.139-.967 1.99-1.218.284-.085.593-.136.93-.136 1.347 0 2.238.805 2.92 1.354.683.548 1.159.84 1.451.84.287-.002.766-.296 1.445-.85.684-.554 1.571-1.367 2.925-1.367 1.356 0 2.239.817 2.919 1.371.342.276.631.489.872.631.24.143.431.214.575.214.288 0 .762-.293 1.442-.854.68-.559 1.567-1.384 2.929-1.384 1.044 0 1.839.533 2.632.997l-6.079-25.507zm-10.619 51.266h-6.864c-.657 0-1.15.479-1.15 1.115 0 .635.493 1.113 1.15 1.113h6.9c.655 0 1.15-.479 1.15-1.113 0-.636-.495-1.115-1.15-1.115h-.036zm-3.414-24.484c-.146 0-.338.074-.58.213-.157.094-.37.261-.57.41v3.731h2.299V9.959c-.505-.378-.908-.623-1.149-.623z"></path>
  </symbol>
  <symbol xmlns="http://www.w3.org/2000/svg" viewBox="0 0 50 26.003" id="icon-left-arrow">
    <path d="M50 11.002H7.659l8.174-8.174L13.005 0 0 12.998l.003.003-.003.004 13.005 12.998 2.828-2.828-8.172-8.173H50z"></path>
  </symbol>
  <symbol xmlns="http://www.w3.org/2000/svg" viewBox="0 0 32 32" id="icon-mail">
    <path fill="#333" d="M28 5H4a4 4 0 0 0-4 4v13a4 4 0 0 0 4 4h24a4 4 0 0 0 4-4V9a4 4 0 0 0-4-4zM2 10.25l6.999 5.25L2 20.75v-10.5zM30 22c0 1.104-.898 2-2 2H4c-1.103 0-2-.896-2-2l7.832-5.875 4.368 3.277a3 3 0 0 0 3.599 0l4.369-3.277L30 22zm0-1.25l-7-5.25 7-5.25v10.5zm-12.801-2.148c-.35.263-.763.4-1.199.4s-.851-.139-1.2-.4L10.665 15.5l-.833-.625L2 9.001V9c0-1.103.897-2 2-2h24c1.102 0 2 .897 2 2l-12.801 9.602z"></path>
  </symbol>
  <symbol xmlns="http://www.w3.org/2000/svg" viewBox="0 0 66 100.8" id="icon-map-pin">
    <path d="M56.3 9.2C43.4-3.1 22.6-3.1 9.7 9.2c-12.9 12.3-12.9 32.2 0 44.5 0 0 23.3 21.8 23.3 47 0-25.2 23.3-47 23.3-47 12.9-12.2 12.9-32.2 0-44.5z" fill="#fff"></path>
    <path d="M47 45.5c-.4-9.5.2-19.2-1.1-30.6 1.8-2.6-6.3-2.2-5.5 1.4-1.3 5.9-2.7 10.8-5.5 18.1-2.5-4.4-5.1-12.6-8.3-19-11.1-8.5-3.7 25.3-4.9 32.6 6.6 11.6 5.7-11.9 4.9-18.1 1.3 3.9 4.3 7.8 5.8 13.7-1.6 1.3 4.2 4.2 5.6-1.1.9-1.9.3-3.2 3.2-11.3-1.2 4.6 2.1 35.4 5.8 14.3z"
      fill="#6bc6b3"></path>
  </symbol>
  <symbol xmlns="http://www.w3.org/2000/svg" viewBox="0 0 20.514 20.512" id="icon-menu-close">
    <path fill="#231F20" d="M20.513 1.414L19.099 0l-8.843 8.842L1.414 0 0 1.414l8.842 8.842L0 19.098l1.414 1.414 8.842-8.842 8.843 8.842 1.414-1.414-8.842-8.842z"></path>
  </symbol>
  <symbol xmlns="http://www.w3.org/2000/svg" viewBox="0 0 19.958 14" id="icon-menu-open">
    <path fill="#231F20" d="M0 0h19.958v2H0zm0 6h19.958v2H0zm0 6h19.958v2H0z"></path>
  </symbol>
  <symbol xmlns="http://www.w3.org/2000/svg" viewBox="0 0 24.8 24.3" id="icon-phone">
    <path d="M17.3 24.3C-17.6 15 12.6-12.4 4.8 10.5c1.6 3.7 4.1 6.5 7.5 8.3 2.6-4.3 13.7 1.5 5 5.5zM12.5 1.5c5.9 0 10.8 4.8 10.8 10.8h1.5C24.8 5.5 19.3 0 12.5 0v1.5z"></path>
    <path d="M12.5 9.3v1.6c.8 0 1.4.6 1.4 1.4h1.6c0-1.6-1.3-3-3-3zm0-3.1c3.3 0 6.1 2.7 6.1 6.1h1.6c0-4.2-3.4-7.6-7.6-7.6v1.5z"></path>
  </symbol>
  <symbol xmlns="http://www.w3.org/2000/svg" viewBox="0 0 100.7 76.9" id="icon-play">
    <path d="M97 18.1c.5-26.3-71.2-12.3-82.5-14C-4.2 5.8 1.5 68 9.4 70.5 112 85.4 98.4 66.8 97 18.1z" fill="#63d1bb"></path>
    <path d="M50.3 76.9C39.7 75.1 4.8 82.4 1.7 62.8-.6 47-5.3 2.6 14.8 1.2 98-2.6 100-2.6 100.6 34.5c4.3 55.5-23.9 39.2-50.3 42.4zm-31.9-6.5C98.6 73 94 74.1 95.2 42.3c-1.2-13.5 2.7-25.2-6-34.1C62.6 3.7 2.1 0 6.3 19.2 5.9 38.5.6 71 18.4 70.4z"></path>
    <path d="M38.4 20.6v35.7l29.8-17.9z"></path>
  </symbol>
  <symbol xmlns="http://www.w3.org/2000/svg" viewBox="0 0 50 26.003" id="icon-right-arrow">
    <path d="M0 11.002h42.341l-8.175-8.174L36.995 0 50 12.998l-.004.003.004.004-13.005 12.998-2.829-2.828 8.173-8.173H0z"></path>
  </symbol>
  <symbol xmlns="http://www.w3.org/2000/svg" viewBox="-0.8 -0.8 17.6 17.6" id="icon-search">
    <path fill="#231F20" d="M16.47 14.93l-3.415-3.415A7.67 7.67 0 0 0 14.6 6.899C14.6 2.646 11.153-.8 6.9-.8S-.8 2.646-.8 6.899s3.446 7.7 7.699 7.7c1.734 0 3.326-.58 4.613-1.546l3.417 3.416c.203.202.418.33.771.33a1.1 1.1 0 0 0 1.1-1.1c0-.24-.061-.499-.33-.769zM1.399 6.899a5.5 5.5 0 1 1 11 0c0 3.038-2.462 5.5-5.5 5.5s-5.5-2.461-5.5-5.5z"></path>
  </symbol>
  <symbol xmlns="http://www.w3.org/2000/svg" viewBox="0 0 32.666 22.742" id="icon-tick">
    <path d="M32.666 1.414L31.252 0 11.338 19.914 1.414 9.989 0 11.403l9.924 9.925 1.414 1.414h.001l1.414-1.414h-.001z"></path>
  </symbol>
  <symbol xmlns="http://www.w3.org/2000/svg" viewBox="0 0 60 59.6" id="icon-toy">
    <path d="M0 43.7l27.4 15.9V36.3L0 20.3v23.4zm51.3-31.3c2.1 8.1-18.9 7.7-15.5-1.6 4.8 8 27.4-2 6.7-3.5l-5-2.9c3.1 7.3-17 9.9-15.5.1l-4.8 2.8c-20.2 1.5 1 11.6 6.8 3.5 3.4 9.5-17 9.7-15.5 1.6l-6 3.5 27.5 16L57.5 16l-6.2-3.6zM37.7 22.6c-1.6 5.1-18.6 4.6-15.5-4.1.2 3.2 13.7 4.5 15.4 0l.1 4.1zm-5.1 13.9v23.1L60 43.7V20.5l-27.4 16zM29.9 6.6C40.4 6.3 40.1-.8 27.5.2c-7.5 1-6.9 6 2.4 6.4"
      fill="#231f20"></path>
  </symbol>
  <symbol xmlns="http://www.w3.org/2000/svg" viewBox="0 0 23.5 20.2" id="icon-twitter">
    <path d="M23.5 4.1c-.4-.3.1-.3-2.5-.4.1-.5.5-.2.7-2.2.9-2.2-.1-1.4-3.1.9-1.2-.5-5-.6-7 2-.1.3 0 0-.4.8.1.3-.1.1-.1 1-.7-.7-1 .9-6.7-4.3C4 2 3.7.1 2.7 2c.3.9-1.3 1.8.1 4.3-1.2.3-1 1.9.4 3.8 0 .2.1.1.4.7.4.5-2.2.2-.8 2.2.9.2-.7.6 3.5 1.5 1.1 1.6-7.1.5-5.8 3 0 .3.2.3.4.4 1.5.4-.7 2 10.5 2.3 1.6-.4 4.7-1.6 6.7-4.8.8-1 .5-.1 2.5-3.6 0-.4.3-.5.3-.9.2-.2.2-.7.4-.9.1-1.1.2-1.7-.2-4 .2-.7.7.9 2.4-1.9zM20 8.2c-.2.9-.6 1.4-1 2 .1.4-.1.5-.1.9-.6.5-.3 4.1-7.4 7.6-2.9-.4-1.6 1.6-8.9-1.3.2-.2.6-.2 1-.2 0-.2.4-.1.4-.2.7-.3.5.5 2.9-1.3 0-.2.1-.3.2-.4 0-.3.2-.4.1-.8-.1-.1.6-.4 0-1 0-.2-.4-.1-.4-.2-.3 0-.2-.1-1.1-.1-.8 0-1.3-.4-1.9-.7.4-.3 1-.4 1.3-.7 2-.7 0-.6-2-4 .4-.4.7-.5.9-.7.7-.2 1-.7-.6-2.1 0-.8 0-1.7.1-2.4.7.1 1.2 3.9 8.3 4.6-.7-3.9 9.2-7.2 8.2 1zm.3-5.7c-.1.3-.2.7-.6.8-.1-.4-.2-.2.6-.8 0-.1.1 0 0 0zm-5.4 3.1c.2.1.3.3.5.4.1.2.3.3.6.4 0-.2.3 0 .4-.2.2 0 .2-.2.3-.3 0-.9-1.2-2.7-1.8-.3z"
      fill="#231f20"></path>
  </symbol>
  <symbol xmlns="http://www.w3.org/2000/svg" viewBox="0 0 32 32" id="icon-video">
    <path d="M26 15l6-4v16l-6-4v-8zm-2 0v8a4 4 0 0 1-4 4H4a4 4 0 0 1-4-4v-8a4 4 0 0 1 4-4h10a2 2 0 0 1 2-2V7H5a1 1 0 1 1 0-2h12a1 1 0 0 1 1 1v3a2 2 0 0 1 2 2 4 4 0 0 1 4 4zm-12 0H4v8h8v-8zm8 1a1 1 0 0 0-1-1h-4a1 1 0 1 0 0 2h4a1 1 0 0 0 1-1z"></path>
  </symbol>
  <symbol xmlns="http://www.w3.org/2000/svg" viewBox="0 0 148.1 72.7" id="logo-desktop">
    <path d="M143.2 31.4c-1.5 1.1-3.1 1.9-4.7 2.8-1.6-2.5 2.6-16-4.4-15.1-.2-.2-.3-.3-.5-.4-.2-.1.2-.5-.6-1 .2-.2.1-1.1-1.7-1.6-.9-.3-1.9-.5-2.9-.7 2.6-2.3 1.3-5.2-2.6-.3-2-.2-4.1-.2-6.1-.1.2-1.4-1.4-.5-5.7-.1 9.3-21.7-18.4-18-20.3-.1-.7-.6-2.8-.2-3.4 2.2h-.2c0-.1 0-.2.1-.3 2.4-2.7 2-13.4-1.7-3.1-.1.1-.1 0-.5.4-.1-.1-.3-.2-.5-.2.7-1.1-3.5-2.1-2.8 1.4-.6.2-1.7 1.6 0 1.4v.5c-.3 0 0 .1-1.1-.1 0-.4-.7-.5-1.4-.3-.1-.8 0 0-.2-1.9.5 0 1.9-1.5-.1-1.1 1-4.7-4.2-6.9-2.7 2.2h-.3c-.1-.9.6-3-2.1-2.3 1.9-9.7-8.7-4.3-.3.2-.1.2-.4.2-.4 1.4-.8-.2-2-.3-2.2 1.3-.2 0-.3-.1-.5-.1-.9-.6.7-5.2-2.8-4.5.6-2-4.7-5.8-3.1 0-.4.1 0 0-.9.4-.8.5-2.2.1-1.5 2.6-.5.1-1.1.1-1.6.2-.4.1.3-4.2-3-2.7-2.3-12.4-26.8-14.6-19 3.9-5.2 2.5-15.4-2.6-21.5 1-1 .5-1.7 1.3-2.1 2.3-2.9-4.3-15-2.9-.3 1.1-.1.9-.4 2 .4 4.8v1.2c-1 .8-.9 1.9-1.1 5.1-2 6 1.7 15 1.1 23.5-1.7.6-1.6 2.1 1.4 4.3-4.6 0-6.3 8.7.6.4 3.2 1.7 7.2 1.3 11.1.9-2.9 3.2-1.2 10.1 2.7-.3 3.7.1 7.5.1 11.2.1 14 .4 31.2-2.2 47.4-1.5 1.8 1.1 0 .4 6.5 1.1 2.9 1 7 .6 12.2 1.1 4.3.7 21.8 3.2 21.8-2.4.8-1.8 1.8-4.4 3-8.6 1.4-2.6.5-3 2.5-13.7.4-.6 11-5.4 4.8-5.3zm-55.4-15l-.1.1c.1-.3.1-.6.2-.9h.1c0 .2-.1.5-.2.8z"></path>
    <path d="M63.3 12.6c2.2 1.7 4.1-3.6-.2-2.8-.5.7-1.3.9.2 2.8zm-42.6-1.7c.8 2.1 5.7-2.6 0-2.7.1.4-1.3-.2 0 2.7zm10 3c.8 0 3.1-1.3 1.2-1.3-.9 0-3.1 1.3-1.2 1.3zm91.9-1.6c1.1.9 5.3-3.3 1.1-2.3-.3.2-2.7 1.6-1.1 2.3zm13.3 5.4c1.2-.1 5-2.4 5.1-4.6-1.6-.3-5.9 3.2-5.1 4.6zm10.8 27.1c-1.9-1.1-10.6 2-2.7 2.1 0 0 6.2.4 2.7-2.1zM57 60.8c-1.6-.5-5.3 7.4-.2 4.3-.6-.3 3-4.4.2-4.3zm4.6 2.6c-.3.1-2.3 0-2.5 1.6-.6.9 4.6-.4 2.5-1.6zm55.1 3.7c-5.1-2-1 7.8 2.9 4.7-.6-1-1.1-1.7-2.9-4.7zm4-2.4c.8 1.6 1.2 2.4 0 0-3.8-2.7-2.4 6.5 0 0zM5.7 43.1c-.4-.2-8.6 1.9-4 2.9.4.1 8.6-1.9 4-2.9zm38.1-3c-.5-3.7-.1-9-.8-14.7 1.4-1.9-4.4-1.6-4 1-.6 3-2 8-4 13.1-1.9-3.4-3.4-8.4-6-13.7-7.5-5.9-3.1 13.7-3.5 23.5 4.2 8 4.4-7.2 3.6-13 .6 2.1 1.9 2.9 4.2 9.9-1.1 1.6 3.8 2.4 4-.8.7-1.7.5-3.5 2.3-8.1-1.6 5.7 3.9 30.1 4.2 2.8zm8.4.7c.8-4.5-3.8-23.7-4.7-5.4-1.1 5.6 4.8 30.4 4.7 5.4zm16.5-3.4C61.8 33.6 54.6 39.1 60 25c3.9-1.2 4 2.5 6.9 2.9C78.2 24 46.2 16 56 37.2c19.6-1.6 6.1 26.4 3.4 7.4-1.2 0-2.2.3-3.3 1.4-2.3 12 19.9 8.7 12.6-8.6z"></path>
    <path d="M86.2 37.2c.8-15.6-6.7-17.7-4 0-2 0-3.9.2-5.9.2C77.8 33 73.5 12.7 72 30c-1.6 9.2 3.8 37.7 4.2 9.3 2-.1 4.1-.3 6.1 0-1.1 14.7 6.5 19.1 3.9-2.1zm17 4.6c-.9-2.8-2.4-5.2-3.6-7.9 6.3-8.7 7.5-21.9-3.4-.4-.5.3-.8.8-.6 1.3-.8 1.6-1.6 3.1-2.5 4.7-1.8-33.3-6.9-11.1-3.8 5.1-.4.4-.1 0 0 .7-2 5.1 4.4 12 4-1.3 1.6-1.7 2.9-3.7 4.1-5.7.5 6.4 13.7 24.4 5.8 3.5z"></path>
    <path d="M127 37.1c-.2-.8-1.4-.9-2.3-.8 1.8-11.7-5.6-17.9-16-7.2-3.9 8.8 4 38.6 3.7 9.9 2.5-.8 4.3.7 8.4-.2-1.8 11.1 5 20.5 4-.1 1.1 0 2.4-.8 2.2-1.6zm-14.8-.2c-3-11 9.9-19.6 8.5-.1-2.3.2-4.6-.2-8.5.1zM48.8 25.2c5.9.4-1.2-14.4-1.8-2.2-.1.3-.2.3 0 1s-.3 1 1.8 1.2z"></path>
  </symbol>
  <symbol xmlns="http://www.w3.org/2000/svg" viewBox="0 0 101.6 34.1" id="logo-footer">
    <path d="M19.1 21.5c-.4-3.7-.1-8.9-.8-14.5 1.4-1.9-4.3-1.6-3.9 1-.6 2.9-2 7.9-3.9 12.9-2-3.4-3.5-8.4-6-13.6C-2.9 1.5 1.4 20.9 1 30.6c4.2 7.9 4.4-7.1 3.5-12.9.6 2.1 1.8 2.8 4.2 9.8-1.1 1.6 3.8 2.3 4-.8.7-1.7.5-3.4 2.3-8.1-1.6 5.8 3.9 29.9 4.1 2.9zm8.4.7c.8-4.5-3.8-23.5-4.7-5.4-1.1 5.6 4.8 30.2 4.7 5.4zm16.3-3.3c-6.9-3.7-13.9 1.7-8.7-12.3 3.3-2 7.5 7 9 .4-7.6-7-19.3.9-12.9 11.7 19.4-1.6 6.1 26.2 3.4 7.3-1.1 0-2.2.3-3.2 1.4-2.3 11.9 19.7 8.5 12.4-8.5z"></path>
    <path d="M61.2 18.7c.8-15.4-6.7-17.5-4 0-1.9 0-3.9.2-5.9.2 1.9-13-5.7-22.8-3.9-2.8-2.2 7.4 4.2 30.9 3.8 4.6 2-.1 4.1-.3 6.1 0-1.1 14.6 6.5 18.9 3.9-2zm16.9 4.4c-.9-2.8-2.4-5.2-3.6-7.8 6.3-8.6 7.5-21.7-3.4-.4-.5.3-.8.8-.6 1.3-.8 1.6-1.6 3.1-2.5 4.6-1.8-33-6.8-11-3.8 5-.4.4-.1 0 0 .7-2 5.1 4.3 11.9 3.9-1.3 1.6-1.7 2.9-3.6 4.1-5.6.6 6.4 13.6 24.2 5.9 3.5z"></path>
    <path d="M101.6 18.5c-.2-.8-1.4-.8-2.3-.8 1.9-11.2-5.7-17.9-15.9-7.1-3.9 8.7 3.9 38.3 3.7 9.8 4-.8 1.9.8 8.3-.2-1.8 11 4.9 20.3 4-.1 1.1 0 2.4-.7 2.2-1.6zM87 18.4c-3-10.9 9.8-19.4 8.4-.1-2.3.1-4.6-.3-8.4.1zM24.1 6.7c5.8.4-1.2-14.3-1.8-2.2-.1.3-.2.3 0 .9.3.8-.3 1.1 1.8 1.3z"></path>
  </symbol>
  <symbol xmlns="http://www.w3.org/2000/svg" viewBox="0 0 26.943 34.09" id="logo-htmlacademy">
    <path d="M13.62.017L13.472 0 0 1.412v24.661l13.473 8.017 13.43-7.99.042-.025V1.412L13.62.017zm11.399 12.11L13.495 5.334l-.001-.104-.087.05-.088-.056v.109L1.925 12.118V3.147l11.548-1.212L25.02 3.147v8.98zm-11.614-5.34L24.923 13.5l-4.479 2.64-7.093-4.221-.014 1.415 5.904 3.513-.86.507-5.03-2.992-.014 1.415 3.827 2.275-.782.523-3.031-1.787-.014 1.413 1.853 1.091-1.8 1.081-11.356-6.751 11.371-6.835zm-11.48 8.34l11.411 6.791.016 1.044-7.942-4.728-.015 1.416 7.979 4.795.018 1.076-7.973-4.74-.013 1.414 8.021 4.822.046.025 8.143-4.872-.011-5.177 3.415-2.036v10.021L13.472 31.85 1.925 24.979v-9.852z"></path>
  </symbol>
  <symbol xmlns="http://www.w3.org/2000/svg" viewBox="0 0 85.6 35" id="logo-mobile">
    <path d="M4.2 26.3c0-3.5-.3-6.9-.4-10.4v-1c0 .1.1.2.1.4.5 1.4 1.1 2.7 1.8 3.9.7 1.2 1.1 2.6 1.5 3.9-.2.2-.3.4-.2.6 0 .2.1.2.2.3.5.5 1.5.2 2.1 0 .2-.1.5-.2.7-.4.3-.2.7-.6.6-1 0-.1 0-.2-.1-.2.4-1.1.6-2.2.8-3.3.2-1.2.7-2.3 1.1-3.5 0 .5.1 1 .1 1.6.2 2.1 0 4.3 0 6.4 0 .7 0 1.4.2 2.1.1.3.3 1.5.2 1.6-.5.5-.4 1.1.3 1.2.8.2 1.8-.1 2.3-.6 1-.9.5-2.4.3-3.6-.4-2 .1-4.2 0-6.2-.1-2.3-.4-4.5-.4-6.8 0-1.8.3-3.7-.3-5.5 0-.2.1-.4.1-.6.2-.9-2.8-.4-3.2.4 0 .3-.1.6 0 .8 0 .1.1.1.1.2-.6 2.7-1.3 5.3-2.2 7.9-.3 1-.7 2-1.1 3-.5-.9-1-1.9-1.4-2.8-1.2-2.9-2.2-5.8-3.6-8.6C4 4.8 1.1 5 .5 6.2-.1 7.6-.1 9 .2 10.5c.3 1.7.3 3.4.3 5.1 0 3.3.3 6.7.4 10-.3.3-.4.7-.1 1.2.1.2.3.3.5.5.7.7 2.9.2 2.9-1zM22.4 7.9c-.1-.6-3.4.1-3.3.9.3 1.8.2 3.6.1 5.4 0 1.7.4 3.3.6 5 .2 1.7-.1 3.5.1 5.2.1.8.6 2.3.1 3-.4.4 1.2.3 1.3.3.6-.1 1.5-.3 1.9-.9.6-.7.2-2 0-2.8-.3-1.7-.1-3.5-.2-5.3-.1-1.7-.6-3.3-.7-4.9.2-2 .4-3.9.1-5.9zm3.1 6.7c.9 2.5 4.6 1.3 6.6 1.5 3.2.2 2.3 4.6 2.3 6.6 0 1.1 1 2.9.2 3.8-.5.6-1.7.6-2.4.6-.7.1-1.9.3-2.3-.4-.8-1.2.1-3.2-.1-4.6-.1-.8-3.4-.1-3.3.9.3 2.2-1.2 5.2 2 5.6 2.1.2 4.4-.1 6.3-.8 1-.3 1.9-.8 2.7-1.5.9-.8.6-2 .4-3-.6-2.5.6-5.3-1-7.5-1.7-2.3-5-.7-7.2-1.3-1.2-.3-1.2-1.9-1.2-2.9 0-1.2-.1-2.3-.2-3.5-.1-.9 0-1.8.6-2.4.1-.1.7-.3.7-.3.3-.1.6-.1.9-.1 1.3-.1 3.9.2 3.4 2.1-.2.9 3 .4 3.3-.5 1-3.9-6.1-3.1-8.2-2.6-1.9.5-3.9 1.6-4 3.7-.1 1 .2 2 .3 3 0 1.3-.2 2.4.2 3.6zM40 16.4c-.1 1.8-.2 3.6-.2 5.4 0 .9.1 1.8.3 2.8.1.8.4 2 .2 2.8-.2.6 3 .2 3.3-.6.5-1.5-.2-3.4-.3-4.9-.1-1.5 0-2.9.1-4.4 1.7-.1 3.4-.2 5.1 0 .1 1.2.2 2.3.3 3.5.1 1 .2 1.9.2 2.9 0 .9.1 2.1-.2 2.9-.7 1.7 2.7 1.6 3.1.3.6-1.6.4-3.5.3-5.2-.1-2.1-.4-4.1-.5-6.2-.1-3.2-.6-6.3-.6-9.5 0-1.7-3.3-1.1-3.3.3 0 3 .4 6 .6 9.1v.2c-1.6 0-3.3.1-4.9.2.2-3.9-.5-7.8-.4-11.7 0-.5-3.3-.1-3.3.9-.4 3.7.3 7.5.2 11.2zm14 5.4c-.3.3-.2.4 0 .5 0 1.5-.1 2.9-.2 4.4-.4.6.4 1 .9 1h.1c.6 0 2.2-.3 2.3-1.1.2-1.8.2-3.5.2-5.3 1.3-1.4 2.4-3.1 3.4-4.7.6 1.2 1.2 2.5 1.7 3.9.7 2.3 1.9 4.4 2.6 6.8.5 1.5 3.8.6 3.3-.9-.7-2.3-1.9-4.5-2.6-6.8-.8-2.3-2-4.4-3-6.6.8-1.6 1.7-3.3 2.5-5 .7-1.5 1.2-3.2 2.6-4.3.5-.4.5-.8-.2-.8-.7-.1-1.7.2-2.3.6-1.3 1-2 2.2-2.7 3.6-.8 1.7-1.6 3.4-2.5 5.1-.1.1-.1.2-.2.4-.4.3-.7.6-.5 1.1-.7 1.3-1.3 2.6-2.1 3.9-.3-4.7-.8-9.3-1-14 0-1.1-3.3-.4-3.3.9.2 5.7 1 11.5 1 17.3.1 0 0 0 0 0zm31.6-6.2c-.2-.7-1.2-.7-1.9-.6v-.8c-.1-2.2-.1-4.5-.3-6.8-.3-2.1-1.4-2.9-3.4-2.8-2 .1-4.4.4-6.3 1.2-2.2.9-3.4 2.5-3.8 4.8-.5 2.5.2 5.2.3 7.8.1 3 .1 5.9.1 8.9 0 .5 3.3 0 3.3-.9v-7c0-.7 0-1.4-.1-2.1 1.2-.5 3.1 0 4.3.1.9.1 1.8-.1 2.7-.2 0 1.9.1 3.9.2 5.9 0 1 .4 3-.3 3.8-.4.4 1.2.3 1.3.3.7-.1 1.5-.3 1.9-.9.8-.9.4-3.2.3-4.3-.1-1.6-.1-3.2-.1-4.8.9-.3 2-.9 1.8-1.6zm-6.7-.2c-1.9 0-3.8-.3-5.7 0-.1-1.1-.2-2.1-.3-3.2-.1-2 .1-4.7 1.9-5.9.5-.3 1.4-.3 2-.4.8-.1 1.6-.3 2.4.2 1 .7.8 3.1.8 4.1 0 1.7.2 3.4.3 5.1-.4.1-.9.1-1.4.1zM18.7 4.1c0 .2 0 .4.1.5V5c.1.2.2.3.4.4.3.2.7.2 1.1.2.4 0 .9-.2 1.2-.4l.2-.2c.4-.3.8-.7.6-1.1C22 2.9 22 2 22 1c0-.8-.8-1.1-1.5-1-.6.1-1.8.5-1.8 1.3s-.1 1.7.1 2.5c-.1.1-.1.2-.1.3zm61.6 29.2c-1.6-.6-3.3-.6-4.9-.8-1.6-.2-3.2-.4-4.9-.6-1.6.1-3.3 0-5 .1l-4.9.3c-6.5.3-13 .3-19.5.1-6.5-.1-13-.5-19.6-.5-3.3 0-6.6.1-9.9.3-1.6.3-3.2.5-4.9.9-1.6.4-3.1.9-4.8 1 1.6.4 3.3.3 5 .3 1.6 0 3.2.1 4.9.2 3.2-.2 6.5-.2 9.7-.3 6.5 0 13 .3 19.6.5 6.5.1 13.1.2 19.7-.1l4.9-.3c1.6-.1 3.2-.1 4.8-.1 1.6-.1 3.3-.3 4.9-.5 1.7-.2 3.2-.6 4.9-.5h.1v-.6c-.1.3-.1.5-.1.6z"></path>
  </symbol>
  <symbol xmlns="http://www.w3.org/2000/svg" viewBox="19.137 15.003 112.389 46.087" id="logo-tablet">
    <path d="M129.364 56.884c4.394.868.843-35.858.147-38.311-1.96-6.569-26.677-2.144-32.18-1.717-12.723.987-25.189-.96-37.611-.376-6.205.292-34.854-1.813-37.519 1.986-5.048 7.208-2.652 25.797-1.278 35.076-4.043.779 2.309 4.154 3.138 4.897 6.314 2.192 16.358-.219 23.007.396 15.434 1.472 31.797-2.194 47.276-.955 4.496 1.144 9.604 1.019 14.224 1.239 3.414 5.572 19.664-2.461 20.796-2.235-.1-.02.507.1 0 0z"></path>
    <path d="M45.195 39.413c-.079-2.546-.484-5.074-.451-7.624.026-2.063.37-4.185-.341-6.164.043-.225.091-.449.132-.675.184-.992-3.103-.467-3.62.44-.325.266-.492.584-.354.908.035.082.065.165.096.247-.623 3.041-1.49 5.985-2.487 8.932-.382 1.128-.843 2.229-1.232 3.354-.553-1.049-1.111-2.083-1.56-3.206-1.303-3.257-2.479-6.55-4.068-9.685.181-1.452-3.039-1.299-3.674.03-.767 1.607-.668 3.229-.416 4.948.285 1.938.334 3.842.358 5.8.045 3.771.339 7.537.396 11.311-.335.372-.438.835-.087 1.305.153.203.344.362.542.521.858.687 3.323.101 3.318-1.207-.013-3.911-.295-7.815-.399-11.727-.01-.383-.017-.766-.022-1.149l.163.411c.607 1.522 1.243 3.001 2.073 4.416.824 1.401 1.237 2.908 1.711 4.438-.179.206-.288.439-.221.674-.038.169.067.275.238.342.606.519 1.747.261 2.381-.008a5.73 5.73 0 0 0 .784-.401c.327-.202.838-.645.691-1.1l-.083-.265c.447-1.204.674-2.456.917-3.728.259-1.356.742-2.64 1.229-3.924.049.587.1 1.176.147 1.762.194 2.422.031 4.812.008 7.236-.009.803.05 1.55.208 2.337.064.324.348 1.714.266 1.79-.581.535-.412 1.192.366 1.363.868.19 1.975-.101 2.628-.705 1.137-1.05.6-2.699.342-4.024-.429-2.221.091-4.709.021-6.973zm7.937.643c-.069-1.888-.725-3.666-.734-5.573-.01-2.188.172-4.358-.146-6.535-.101-.688-3.849.095-3.717.996.293 2.002.187 4.014.151 6.029-.035 1.941.444 3.699.694 5.603.254 1.95-.081 3.945.141 5.897.103.913.712 2.603.084 3.398-.398.505 1.394.322 1.474.31.729-.136 1.702-.372 2.186-.987.62-.784.186-2.3.051-3.185-.302-1.955-.11-3.983-.184-5.953zm15.497-3.153c-1.957-2.641-5.589-.739-8.125-1.46-1.308-.372-1.323-2.155-1.319-3.224.003-1.353-.108-2.592-.26-3.935-.112-.998-.022-2.013.708-2.755.135-.137.815-.318.768-.322a7.685 7.685 0 0 1 1.013-.088c1.469-.063 4.376.22 3.814 2.356-.253.958 3.413.409 3.68-.604 1.15-4.364-6.914-3.526-9.192-2.921-2.098.557-4.412 1.751-4.531 4.174-.059 1.156.257 2.258.309 3.404.057 1.319-.188 2.635.273 3.907 1.027 2.831 5.238 1.495 7.38 1.656 3.65.271 2.561 5.19 2.608 7.48.025 1.224 1.121 3.255.2 4.278-.565.627-1.881.664-2.649.729-.772.064-2.089.296-2.604-.438-.942-1.345.087-3.605-.114-5.146-.115-.879-3.859-.091-3.717.995.325 2.492-1.328 5.83 2.279 6.258 2.318.275 4.926-.152 7.118-.881 1.135-.376 2.188-.894 3.077-1.701.982-.892.659-2.228.396-3.365-.641-2.769.695-5.956-1.112-8.397zm16.441-.178c-.114-3.584-.653-7.129-.669-10.719-.007-1.871-3.762-1.239-3.754.325.014 3.424.472 6.801.646 10.215l.012.209c-1.85-.017-3.699.169-5.553.233.191-4.396-.58-8.756-.411-13.149.021-.553-3.677-.085-3.718.995-.162 4.248.558 8.461.43 12.709-.061 2.026-.232 4.046-.247 6.074-.007 1.039.164 2.074.312 3.098.138.947.458 2.212.172 3.149-.224.731 3.379.275 3.666-.659.516-1.687-.211-3.834-.383-5.541-.167-1.636-.039-3.319.078-4.98 1.925-.123 3.852-.281 5.77-.011.084 1.308.186 2.613.305 3.924.101 1.099.171 2.194.187 3.298.016.966.135 2.367-.21 3.282-.733 1.953 2.99 1.792 3.533.347.667-1.775.477-3.984.363-5.85-.144-2.32-.454-4.627-.529-6.949zm16.069 4.246c-.892-2.617-2.252-4.913-3.431-7.399.95-1.85 1.915-3.7 2.782-5.588.788-1.715 1.373-3.624 2.922-4.833.545-.424.522-.85-.243-.902-.83-.058-1.958.182-2.629.704-1.408 1.099-2.301 2.433-3.035 4.05a156.23 156.23 0 0 1-2.765 5.765c-.069.14-.141.28-.213.421-.465.3-.744.723-.606 1.201-.75 1.484-1.518 2.959-2.371 4.375-.283-5.25-.905-10.496-1.093-15.752-.041-1.205-3.768-.455-3.715.996.23 6.517 1.155 13.021 1.221 19.536l-.047.048c-.285.293-.179.469.051.571a57.736 57.736 0 0 1-.199 4.985c-.448.709.439 1.081 1.029 1.081h.092c.701 0 2.49-.331 2.579-1.294.182-1.992.237-3.981.221-5.971 1.508-1.627 2.741-3.444 3.849-5.348.72 1.405 1.405 2.821 1.887 4.35.816 2.602 2.182 4.991 2.971 7.604.518 1.713 4.229.701 3.717-.996-.792-2.611-2.093-5.024-2.974-7.604zm22.304-4.398c-.199-.791-1.302-.807-2.156-.731-.012-.318-.02-.637-.033-.956-.12-2.525-.158-5.104-.371-7.622-.198-2.331-1.505-3.167-3.77-3.08-2.293.087-4.962.5-7.101 1.332-2.475.962-3.852 2.784-4.326 5.391-.522 2.86.227 5.901.354 8.775.146 3.324.062 6.655.059 9.98 0 .545 3.717.03 3.717-.996.004-2.633.041-5.268 0-7.9a50.827 50.827 0 0 0-.097-2.318c1.3-.563 3.499.011 4.792.133 1.052.1 2.059-.155 3.079-.275.02 2.193.101 4.4.191 6.591.047 1.122.453 3.351-.335 4.279-.414.491 1.405.326 1.475.314.753-.139 1.671-.381 2.186-.988.901-1.062.433-3.597.381-4.863-.074-1.814-.097-3.63-.135-5.443 1.095-.145 2.294-.816 2.09-1.623zm-13.872-.143c-.099-1.183-.207-2.364-.288-3.552-.15-2.212.111-5.298 2.172-6.642.553-.36 1.59-.298 2.235-.416.922-.166 1.856-.369 2.685.181 1.148.762.865 3.47.863 4.62-.002 1.904.198 3.797.295 5.698-.524.052-1.056.084-1.597.073-2.169-.053-4.311-.394-6.365.038zM49.915 25.373a2.99 2.99 0 0 0 1.401-.497l.244-.206c.493-.318.92-.785.69-1.291-.479-1.049-.403-2.117-.395-3.241.006-.908-.914-1.182-1.689-1.114-.686.061-2.058.551-2.063 1.443-.007.942-.068 1.913.104 2.84-.046.106-.071.226-.099.336-.053.201.015.399.135.56l.002.127.014.318c.07.221.205.388.407.503.367.222.832.263 1.249.222z"
      fill="#FFF"></path>
  </symbol>
</svg>
