<svg xmlns="http://www.w3.org/2000/svg">

  <!-- Просто иконки -->
  <g>

    <!-- Зиг-заг -->
    <symbol id="zig-zag" viewBox="0 0 1150 34">
      <svg version="1.1" id="Layer_1" xmlns:xlink="http://www.w3.org/1999/xlink" x="0px" y="0px"
        style="enable-background:new 0 0 1150 34;" xml:space="preserve">
        <style type="text/css">
          .st0 {
            fill: #FFFFFF;
          }

        </style>
        <path class="st0" d="M1121.3,0c-5-0.1-8.8,2.1-11.9,4.7c-27.1,26-27.1-8.8-49.9-4.2c-45.4,33.8-28-7.8-61,1.3
    c-41,37.3-31.9-27.3-70.7,10.5c-25.1,10-27.2-31-54.6-1.9c-3.9,2.6-6.2,3.8-12.9,3.5c-50.8-32.6-25.8,3.4-61.3-0.9
    c-43.5-38.1-30.4,23.6-69.9-8.8c-4.8-3-7.9-3.9-11.3-4.3C696.4,2,706,29.4,662.9,0c-6.5,0.4-7.2-0.3-14.1,5.6
    c-23,21.1-26.4-1.3-40.9-5c-4.5-0.1-6.1-2.7-13.8,3.6C553.8,36,563-24.1,526.9,11.4c-23,11.1-26.4-19.6-45.8-9.4
    c-44.5,36.8-24.6-27.6-75.8,11.8c-28.1,0.5-14.6-31-57.2,0c-31.7-1.2-8.9-28.2-59.4-0.8c-17.8,2.8-19.2-19.5-35.9-11.7
    c-39.1,34.7-41.2-23.1-67.8,7.9c-28.1,18.8-29.1-30.1-62.6,2.7c-3.3,2.1-6.9,3-11.4,1.7c-34.4-29.2-36.5,2.2-58.9,0
    C18.5-16,20,12.4,0,14v20h1150V14C1135.6,14,1135.6,0,1121.3,0z" />
      </svg>
    </symbol>

    <!-- Зиг-заг линия -->
    <symbol id="zig-zag" viewBox="0 0 1150 23">
      <svg version="1.1" id="Layer_2" xmlns:xlink="http://www.w3.org/1999/xlink" x="0px" y="0px"
        style="enable-background:new 0 0 1150 23;" xml:space="preserve">
        <style type="text/css">
          .st0 {
            fill: #E6E7E8;
          }

        </style>
        <g>
          <path class="st0" d="M1150,23c-5.6,0.1-10.3-2.2-13.8-4.9c-24.2-27.4-28.8,18.5-56,1.1c-30.4-32.2-30.8,28.2-65.9-7.5
      c-3.7-2.2-4.4-3-10.4-2.6c-47.1,35.8-36.1-10.8-63,2.6c-36.2,35.1-38.2-24.2-64.5,6.4c-3.4,2.7-7,4.4-13.8,4.9
      c-5.3,0.1-10.5-2.2-13.8-4.9c-24.2-27-27.2,16.3-54.4,2.1C754-14.9,776.1,48.8,718.8,9c-53.4,34-33.9-6-63.8,1.6
      c-44.7,38.4-31.1-26.4-72.9,11.3c-22.8,8.1-27.8-24.2-45.4-8.8c-4.7,4.4-7.9,8.4-16.6,9.7c-14.8,1.7-17.6-8.4-26.8-13.1
      c-29-2.5-12.8,31.4-62-0.7c-53,35.2-36.5-10.1-65.5,2.8c-36.3,35.1-38.2-24.2-64.5,6.4c-3.4,2.7-7,4.4-13.8,4.9
      c-4.9,0-10.5-2-13.8-4.9c-24.5-27-27.3,16.4-54.5,2.1C178.7-15,201.4,48.8,143.8,9c-52.8,35.2-37-10.2-65.5,2.8
      c-36.1,35.1-38.3-24.2-64.5,6.4c-3.4,2.7-7,4.4-13.8,4.9v-9c53.6-35.3,35.8,9.9,65.5-2.8c37.1-35.5,37.2,25.3,66-7.5
      c4.7-2.8,7.1-3.9,14.9-3.6c5.1,0.6,7.9,2.4,11.2,4.7c24.2,27.4,28.9-18.5,56-1.1c30.5,32.2,30.7-28.2,65.9,7.5
      c3.7,2.2,4.4,3,10.5,2.6c46.9-35.8,36.2,10.8,63-2.6c36.1-35.1,38.3,24.2,64.5-6.4c3.4-2.7,7-4.4,13.8-4.9
      c5.1-0.1,10.6,2.2,13.8,4.9c24.4,26.5,25.6-14.1,52.7-3c40.7,36.4,27.2-28.7,72.7,11.4c4.5,1.5,8.6,0.9,12.5-2
      c32.6-31.3,35.9,11.3,55.8,1.1c39.2-37.2,38.9,23.3,66.1-7.5c3.4-2.7,7-4.5,13.8-4.9c4.9,0,10.4,2,13.8,4.9
      c24.2,27,27.4-16.4,54.4-2.1C827.5,38,805-25.8,862.5,14c53.1-34,34.3,6.2,63.8-1.6c46.7-38.6,27.7,26.3,75-11.9
      c6.5-1.5,12.5,0.1,17.2,3.3c27.3,27.8,24.2-10.6,52.2-2.7c49.9,37.7,18.4-27.5,79.2,12.9V23z" />
        </g>
      </svg>
    </symbol>

    <!--Маркер карты-->
    <symbol id="map-mark" viewBox="0 0 66 100.8">
      <svg version="1.1" id="Layer_1" xmlns:xlink="http://www.w3.org/1999/xlink" x="0px" y="0px"
        style="enable-background:new 0 0 66 100.8;" xml:space="preserve">
        <style type="text/css">
          .st0 {
            fill: red;
          }

          .st1 {
            fill: #6BC6B3;
          }

        </style>
        <path class="st0" d="M56.3,9.2C43.4-3.1,22.6-3.1,9.7,9.2c-12.9,12.3-12.9,32.2,0,44.5c0,0,23.3,21.8,23.3,47
      c0-25.2,23.3-47,23.3-47C69.2,41.5,69.2,21.5,56.3,9.2z" />
        <path class="st1" d="M47,45.5c-0.4-9.5,0.2-19.2-1.1-30.6c1.8-2.6-6.3-2.2-5.5,1.4c-1.3,5.9-2.7,10.8-5.5,18.1
      c-2.5-4.4-5.1-12.6-8.3-19c-11.1-8.5-3.7,25.3-4.9,32.6c6.6,11.6,5.7-11.9,4.9-18.1c1.3,3.9,4.3,7.8,5.8,13.7
      c-1.6,1.3,4.2,4.2,5.6-1.1c0.9-1.9,0.3-3.2,3.2-11.3C40,35.8,43.3,66.6,47,45.5z" />
      </svg>
    </symbol>

    <!--Иконка флаг-->
    <symbol id="icon-flag" viewBox="-11.34 -28.346 46.68 81.691">
      <svg version="1.1" id="Layer_1" xmlns:xlink="http://www.w3.org/1999/xlink" x="0px" y="0px" width="46.68px"
        height="81.691px" enable-background="new -11.34 -28.346 46.68 81.691" xml:space="preserve">
        <g id="miu">
          <g id="Artboard-1" transform="translate(-755.000000, -443.000000)">
            <g id="slice" transform="translate(215.000000, 119.000000)">
            </g>
            <g id="editor-flag-triangle-notification-glyph">
              <path fill="#63D1BB"
                d="M751.439,418.545v38.9l38.9-19.451L751.439,418.545z M743.66,496.346v-81.691h3.805v81.691H743.66z" />
            </g>
          </g>
        </g>
        <g>
          <rect x="-11.34" y="-28.346" fill="#231F20" width="3.805" height="81.691" />
        </g>
      </svg>
    </symbol>
    <!-- Иконка видеоустройство video -->
    <symbol id="video-payer" viewBox="0 0 32 32">
      <svg version="1.1" id="Layer_1" xmlns:xlink="http://www.w3.org/1999/xlink" x="0px" y="0px" width="32px"
        height="32px" enable-background="new 0 0 32 32" xml:space="preserve">
        <g transform="translate(0 192)">
          <path
            d="M26-177l6-4v16l-6-4V-177z M24-177v8c0,2.209-1.791,4-4,4H4c-2.209,0-4-1.791-4-4v-8c0-2.209,1.791-4,4-4h10 c0-1.105,0.895-2,2-2v-2H5c-0.553,0-1-0.447-1-1s0.447-1,1-1h12c0.553,0,1,0.447,1,1v3c1.105,0,2,0.895,2,2 C22.209-181,24-179.209,24-177z M12-177H4v8h8V-177z M20-176c0-0.553-0.447-1-1-1h-4c-0.553,0-1,0.447-1,1s0.447,1,1,1h4 C19.553-175,20-175.447,20-176z" />
        </g>
      </svg>
    </symbol>
  <!-- Лого Академии -->
  <symbol id="logo-academy" viewBox="0 0 60 60">
    <svg version="1.1" id="Слой_1" xmlns:xlink="http://www.w3.org/1999/xlink" x="0px" y="0px"
      style="enable-background:new 0 0 60 60;" xml:space="preserve">
      <style type="text/css">
        .st0 {
          fill: #2E368F;
        }

      </style>
      <path class="st0" d="M30.2,5c-0.1,0-19.4,2.1-19.9,2.1v36.2L30,55l19.7-11.7V7.1C49.7,7.1,30.2,5,30.2,5z M47.2,41.8L30,52
    L12.8,41.8V27l17.1,10.2V39l-11.7-7v1.8L30,40.9v1.9l-11.8-7v1.8l11.8,7l11.9-7.1v-7.6l5.3-3.2V41.8z M47.1,24.8
    c-1.6,0.9-4.8,2.9-6.9,4.1l-10.3-6.1v1.8l8.8,5.3c-0.5,0.1-0.4,0.2-1.6,0.8l-7.3-4.3v1.8l5.8,3.4l-1.4,0.9l-4.3-2.6v1.8l2.9,1.7
    l-2.9,1.7L12.9,25l17-10.2C29.9,14.8,47.1,24.8,47.1,24.8z M47.2,23L29.9,12.8L12.8,23V9.4c8.6-1.7,25.7-1.7,34.4,0
    C47.2,9.4,47.2,23,47.2,23z" />
    </svg>
  </symbol>


  <!--Иконки лупа и корзина  -->
  <g>
    <!-- Иконка корзина -->
    <symbol id="icon-basket" viewBox="264.205 370.961 20.294 18.849">
      <svg version="1.1" id="Layer_1" xmlns:xlink="http://www.w3.org/1999/xlink" x="0px" y="0px" width="20.294px"
        height="18.849px"  enable-background="new 264.205 370.961 20.294 18.849"
        xml:space="preserve">
        <path fill="#231F20"
          d="M283.75,378.19h-3.151l-3.407-6.814c-0.185-0.37-0.634-0.52-1.006-0.335 c-0.371,0.186-0.521,0.636-0.335,1.006l3.071,6.143h-9.138l3.072-6.143c0.185-0.371,0.035-0.821-0.335-1.006 c-0.37-0.185-0.821-0.035-1.006,0.335l-3.407,6.814h-3.151c-0.414,0-0.75,0.336-0.75,0.75s0.336,0.75,0.75,0.75h0.157l0.855,2.991 c-0.187,0.137-0.316,0.347-0.316,0.595c0,0.396,0.309,0.71,0.697,0.739l1.656,5.795h12.697l1.656-5.795 c0.388-0.028,0.698-0.344,0.698-0.739c0-0.249-0.129-0.459-0.316-0.596l0.854-2.991h0.157c0.414,0,0.75-0.336,0.75-0.75 S284.164,378.19,283.75,378.19z M279.569,388.311h-10.433l-1.224-4.284h12.881L279.569,388.311z M281.222,382.526h-13.739 l-0.81-2.836h15.359L281.222,382.526z" />
      </svg>
    </symbol>
    <!-- Иконка лупа -->
    <symbol id="icon-search" viewBox="-0.8 -0.8 17.6 17.6">
      <svg version="1.1" id="Layer_1" xmlns:xlink="http://www.w3.org/1999/xlink" x="0px" y="0px" width="17.6px"
        height="17.6px" enable-background="new -0.8 -0.8 17.6 17.6" xml:space="preserve">
        <path fill="#231F20"
          d="M16.47,14.93l-3.415-3.415C14.02,10.226,14.6,8.634,14.6,6.899c0-4.253-3.447-7.699-7.7-7.699 S-0.8,2.646-0.8,6.899s3.446,7.7,7.699,7.7c1.734,0,3.326-0.58,4.613-1.546l3.417,3.416c0.203,0.202,0.418,0.33,0.771,0.33 c0.607,0,1.1-0.492,1.1-1.1C16.8,15.459,16.739,15.2,16.47,14.93z M1.399,6.899c0-3.038,2.462-5.5,5.5-5.5s5.5,2.462,5.5,5.5 s-2.462,5.5-5.5,5.5S1.399,9.938,1.399,6.899z" />
      </svg>
    </symbol>
  </g>


  <!-- Соц сети -->
  <g>
    <!--Соц сети фэйсбук  -->
    <symbol id="icon-facebook" viewBox="0 0 15 27.7">
      <svg version="1.1" id="Layer_1" xmlns:xlink="http://www.w3.org/1999/xlink" x="0px" y="0px"
        style="enable-background:new 0 0 15 27.7;" xml:space="preserve">
        <style type="text/css">
          .st0 {
            fill: #231F20;
          }

        </style>
        <g id="facebook">
          <g>
            <path class="st0" d="M11.7,5.2c1,0,2,0,2.7-0.3c0.4-0.8,0.6-1.9,0.6-3c-0.2,0-0.1-0.3-0.2-0.4c0-0.2-0.3-0.2-0.3-0.4
          C12.6-0.5,6.2-0.7,3.6,2.7C3.4,4,3,4.9,3.6,9.7c-1,0.3-2.2,0.4-3.4,0.5c-0.1,0.5-0.6,0,0.2,3.3c1.2,0.6,0.4,0.8,3.2,0.7
          c0.1,2.4-0.4,2.2,0.4,9.2c-0.3,0.5-0.5,1-0.4,1.8c0.2,0.5-0.1,0.4,0.6,1c0.3,0.8-0.6-0.6-0.4,1.4c0.1,0.1,1.7,0.8,5.1-1
          c0.5,0.2,0.9,0,1.2-0.2c0.4-3.5-0.1-6.5-0.2-11.7c0.2-1.1,2.2,2.4,3.3-3.3c0.5-1.1-0.4-3.4-3.7-2.2c0-1.1-0.3-2.3,0-3.4
          C10.2,5.6,10.9,5.4,11.7,5.2z M7.8,10c0.1,0.3,0.3,0.5,0.4,0.7c0.1,0,0.2,0,0.2,0.1c1.2,0.1,2.2-0.1,3.1-0.3c0,1-0.3,1.7-0.5,2.5
          c-0.7,0-1.5,0.3-2,0.2c-0.3,0.2-0.4,0.5-0.6,0.7c0,0.4,0.1,0.5,0,0.8c-0.2,0.1-0.1,0.6-0.2,0.8c-0.1,2.9-0.2,6.2,0.1,9.9
          C8.1,25.8,8,25,6,25.8c-0.2-0.1,1-1-0.2-1.6c0.1-1,0.3,0.6,1-3.6C6.3,20.5,6.3,20.9,6,21c0,0.1,0,0.2-0.1,0.2c0,0.1,0,0.2-0.1,0.2
          c0,0.1-0.2,0.1,0,0c0-0.1,0-0.2,0.1-0.2c0-0.1,0-0.2,0.1-0.2v-0.3c0.1-0.6,0.7-0.3,1.3-4.2c-0.5,0-0.8,0.3-0.9,0.7
          c-0.3-0.2,0.2-0.4,0.1-0.7C7.2,16,7,12.8,5.6,15.4c-0.6-0.9,0.7-3.7-3.4-2.6c-0.1-0.3-0.2-1-0.1-1.2c1-0.1,2.5,0.2,3.2-0.2
          c0-0.1,0-0.2,0.1-0.2c0.1-0.7-0.3-1-0.5-1.4c0.2-0.8,0-2,0.1-3c0.2-0.1,0.3-0.4,0.5-0.6c0.1-1,0.7-1.5,0.7-2.5
          c-0.3,0-0.6-0.1-0.6,0.2C5.2,3.8,4.7,4.4,5.4,3.1c1.6-1.4,4.4-1.8,7.9-1C13.4,2.7,13,3,13.1,3.6c-1.2,0-2.6-0.2-5.1,1.4
          C7.7,6.2,7.7,7,7.8,10z" />
          </g>
        </g>
      </svg>
    </symbol>

    <!-- Инстаграм -->
    <symbol id="icon-instagram" viewBox="0 0 21.8 21.3">
      <svg version="1.1" id="Layer_1" xmlns:xlink="http://www.w3.org/1999/xlink" x="0px" y="0px"
        style="enable-background:new 0 0 21.8 21.3;" xml:space="preserve">
        <style type="text/css">
          .st0 {
            fill: #231F20;
          }

        </style>
        <g id="instagram">
          <g>
            <path class="st0" d="M21.8,12.1c-0.2-3.4,0-4.5-0.6-10.5c1-0.9-10.1-2.5-20.5-1c0.1,16-7,24.7,20.7,19.4
			C21.9,18.1,21.7,16.1,21.8,12.1z M8.8,5.9c0.9,0.2,0-0.8,4.3,0.2c0.1,0.2-0.2,0.5,0.2,0.7v0.1c0.1,0,0.1,0,0.2,0.1
			c0.4,0,0.4,0.3,2.2,0.7c-0.2,1.5,0.4,1.8,0.2,5.1c-0.4,0.6-0.2,0.6-1.1,1.7c-0.4,0.1-0.3,1.4-1.7,1c-0.4,0.2-0.9,0.3-1.2,0.6
			c-0.3-0.2-1.6,0.3-4.3-1.2c-0.1-0.1-0.2,0-1-0.4C6,12.6,4.5,10.2,7.3,6.7c0.2,0,0.4-0.1,0.4-0.3C7.9,6.3,8.1,6.8,8.8,5.9z
			 M7.1,3.2c-0.2,0,0.1-1.1,0.1-1.7c0.1-0.1,1.6,0,0.3,0.7c0,0.2,0.3,0,0.5,0.1c0,0.9-0.1,1.5,0,2.2H7.5c0,0.2,0.2,0.2,0.5,0.2
			C7.9,5,8,5.1,8,5.3C7.8,5.5,7.3,5.4,7,5.4C6.9,4.8,7.2,4,7.1,3.2z M6.4,1.6c0.4,0.3,0.2,0,0.1,1C6.3,2.4,6.5,1.9,6.4,1.6z
			 M6.6,3.4C6.5,3.3,6.4,3.2,6.4,3C6.6,3,6.6,3.2,6.6,3.4z M6.6,4.8c-0.1,0.1-0.1,0-0.1-0.2C6.6,4.5,6.6,4.7,6.6,4.8z M6.4,5
			c0.2,0,0.1,0.2,0.2,0.2c0,0.2-0.3,0.2-0.4,0.1C6.3,5.2,6.4,5.1,6.4,5z M4.1,3.8c0-0.1,0-0.2-0.1-0.2c-0.1-0.7,0.1-1.4,0-2
			c0.3-0.2,0.8,0,1.1-0.1C4.9,1.2,5.5,2.4,4.8,2.7c0.6,1,0.3,0.1,0.5,2.7c-0.6,0-0.9,0.2-1.5,0.1C3.6,5,4.3,5.3,4.1,3.8z M3.5,3.8
			c-0.2,0-0.2-0.5-0.1-0.6C3.8,3.2,3.7,3.7,3.5,3.8z M3.4,4.8c0.1-0.3,0-0.3,0.1-0.7C3.7,4.1,3.7,4.9,3.4,4.8z M3.6,2.7
			C3.4,2.8,3.3,2.5,3.5,2.4C3.7,2.3,3.7,2.6,3.6,2.7z M3.6,1.6c0,0.2-0.1,0.2-0.1,0.3c-0.2,0-0.1-0.2-0.2-0.2
			C3.3,1.6,3.5,1.6,3.6,1.6z M3.4,5.3c0.1,0,0.1,0.3-0.1,0.2C3.4,5.5,3.4,5.4,3.4,5.3z M2.7,1.6c0,0.3-0.4,0.3-0.4,0H2.7z M1.7,1.7
			c0,0.2-0.3,0.2-0.4,0.4C1.1,1.9,1.4,1.6,1.7,1.7z M1.3,2.4C1.5,2.2,1.7,2,2,1.8C1.9,1.7,2,1.7,2,1.6h0.2C2.3,2.2,1.6,1.8,2,3.3
			c-0.3,0-0.3,0.3-0.6,0.2C1.4,3.1,1.2,2.9,1.3,2.4z M1.3,5.7V4.1C1.5,3.9,1.7,3.7,2,3.6C2.2,4.1,2.1,5,2.4,5.5
			C2.1,5.6,1.7,5.6,1.3,5.7z M19.6,16.8c-0.1,1-0.2,2-0.4,2.8c-0.9,0.1-5.4-0.2-9.6,0.1c0.2-0.3,0.4-0.9,0.2-1.3
			c-0.8,0-0.8,0.8-1.1,1.3c-0.7-0.1-1.1,0.1-1.8,0.1c0.2-0.7,0.8-1,0.9-1.7c-0.3-0.2-0.4-0.7-2,1.7h-1c0.3-0.7-0.1,0.3,1.4-2.7
			c-0.2-0.3-0.4,0-0.7,0C4.9,17.9,5.2,18,2.9,20c-0.2-0.1,0-0.4,0.2-0.4C3.1,19.4,3,19,3.2,19c0.4-1.1,0.3-0.7,1.1-2.8
			c-0.6,0.4-0.1-0.4-1.7,2.3c-0.5-0.6,0.7-2,0.5-4.2c-0.2,0-0.4,0.1-0.5,0.3c-0.9,0.1-0.1-4.8-1-7.8c1.6,0,3.1,0.1,4.8,0.2
			C-2.6,18.7,24,22,16,6.7c0.5-0.3,0,0.2,3.8,0.1C20,9.7,20.1,9,19.6,16.8z M19.9,5.6c-0.6-0.1-1.2-0.3-1.9-0.4
			C18.8,6,21.4,0.9,16.5,2c0.9,0.1-2.3,1.6,1.2,3.1c-2.4,0.1-4.5-0.2-8.5,0.1C9.3,4,9.3,2.7,9.1,1.6h3.1c-0.4,0.6,0.1-0.3-2.4,1.7
			c2.5-0.9,1.9-2.4,10.1-1.3C20.3,3.5,20.3,2.6,19.9,5.6z M14.1,1.9C14.2,1.9,14.1,1.8,14.1,1.9L14.1,1.9z M14.1,1.9
			c-0.5,0.2-1,0.3-1.4,0.7C13.2,2.4,13.8,2.3,14.1,1.9z M15.2,2.5C15.3,2.5,15.2,2.4,15.2,2.5L15.2,2.5z M13.4,3.4
			c0.7-0.2,1.2-0.6,1.7-0.9c-0.4,0-0.6,0.3-1,0.4C14,3.1,13.6,3.1,13.4,3.4z M12.7,2.6C12.6,2.6,12.7,2.7,12.7,2.6L12.7,2.6z
			 M12,3.2C12.2,3.1,12,3.1,12,3.2L12,3.2z M12,3.3C12,3.3,12,3.2,12,3.3C12,3.2,12,3.2,12,3.3z M11.9,3.3C12,3.4,12,3.3,11.9,3.3
			L11.9,3.3z M11.1,3.9c0.3-0.1,0.6-0.3,0.8-0.6C11.5,3.5,11.3,3.7,11.1,3.9z M13.3,4.9c0.5,0,0.7-0.4,1.2-0.5
			c0.3-0.3,0.8-0.4,1-0.8C15,3.7,15.1,3.7,13.3,4.9z M11.1,3.9C10.7,3.9,11,4.2,11.1,3.9L11.1,3.9z M10.5,4.3
			C10.6,4.3,10.6,4.3,10.5,4.3C10.6,4.2,10.5,4.3,10.5,4.3z M13.3,4.9C13.2,5,13.3,5,13.3,4.9L13.3,4.9z M12.2,6.8
			c-0.8-0.6-3.3-0.5-5.1,1.4c0.1,0.2-0.3,0.2-0.6,1.1c-0.7,3,3.2,9.5,8.4,3.8C15,12.4,16,7.1,12.2,6.8z M8.8,11.1
			c-0.1-0.1-0.1-0.2-0.2-0.4C8.9,10.6,8.8,10.9,8.8,11.1z M8.9,11.4C8.9,11.3,8.9,11.4,8.9,11.4C8.9,11.6,8.9,11.5,8.9,11.4z
			 M9.3,9.3C9.3,9.3,9.4,9.3,9.3,9.3C9.4,9.4,9.3,9.4,9.3,9.3z M11,7.2c-0.2,0.3,0,0.6,0.1,0.8C10.8,8,10.5,7.2,11,7.2z M11.4,11.2
			C11.3,11.1,11.4,11.1,11.4,11.2C11.5,11.1,11.4,11.2,11.4,11.2z M12.1,14c0-0.1,0.1,0,0.2,0C12.3,14.1,12.1,14.1,12.1,14z
			 M14.3,11.5c-0.2-0.1-0.1,0.2-0.4,0.2c0.1-0.2,0.1-0.3,0.2-0.5C14.3,11.2,14.3,11.3,14.3,11.5z M13.2,7.7c0.2,0.2,0.3,0,1,0.9
			c0.1,0.8,0.2,1.5,0.2,2.4c-1.1,0.4-0.5,0.6-2.6-0.1c-0.4-0.5-1-1.3,0.3-3.3C12.5,7.7,12.4,8,13.2,7.7z" />
          </g>
        </g>
      </svg>
    </symbol>
    <!-- Твитер -->
    <symbol id="icon-twitter" viewBox="0 0 23.5 20.2">
      <svg version="1.1" id="Layer_1" xmlns:xlink="http://www.w3.org/1999/xlink" x="0px" y="0px"
        style="enable-background:new 0 0 23.5 20.2;" xml:space="preserve">
        <style type="text/css">
          .st0 {
            fill: #231F20;
          }

        </style>
        <g id="twitter">
          <g>
            <path class="st0" d="M23.5,4.1c-0.4-0.3,0.1-0.3-2.5-0.4c0.1-0.5,0.5-0.2,0.7-2.2c0.9-2.2-0.1-1.4-3.1,0.9c-1.2-0.5-5-0.6-7,2
			c-0.1,0.3,0,0-0.4,0.8c0.1,0.3-0.1,0.1-0.1,1c-0.7-0.7-1,0.9-6.7-4.3C4,2,3.7,0.1,2.7,2C3,2.9,1.4,3.8,2.8,6.3
			c-1.2,0.3-1,1.9,0.4,3.8c0,0.2,0.1,0.1,0.4,0.7C4,11.3,1.4,11,2.8,13c0.9,0.2-0.7,0.6,3.5,1.5c1.1,1.6-7.1,0.5-5.8,3
			c0,0.3,0.2,0.3,0.4,0.4c1.5,0.4-0.7,2,10.5,2.3c1.6-0.4,4.7-1.6,6.7-4.8c0.8-1,0.5-0.1,2.5-3.6c0-0.4,0.3-0.5,0.3-0.9
			c0.2-0.2,0.2-0.7,0.4-0.9c0.1-1.1,0.2-1.7-0.2-4C21.3,5.3,21.8,6.9,23.5,4.1z M20,8.2c-0.2,0.9-0.6,1.4-1,2
			c0.1,0.4-0.1,0.5-0.1,0.9c-0.6,0.5-0.3,4.1-7.4,7.6c-2.9-0.4-1.6,1.6-8.9-1.3c0.2-0.2,0.6-0.2,1-0.2C3.6,17,4,17.1,4,17
			c0.7-0.3,0.5,0.5,2.9-1.3c0-0.2,0.1-0.3,0.2-0.4c0-0.3,0.2-0.4,0.1-0.8c-0.1-0.1,0.6-0.4,0-1c0-0.2-0.4-0.1-0.4-0.2
			c-0.3,0-0.2-0.1-1.1-0.1c-0.8,0-1.3-0.4-1.9-0.7c0.4-0.3,1-0.4,1.3-0.7c2-0.7,0-0.6-2-4C3.5,7.4,3.8,7.3,4,7.1
			C4.7,6.9,5,6.4,3.4,5c0-0.8,0-1.7,0.1-2.4c0.7,0.1,1.2,3.9,8.3,4.6C11.1,3.3,21,0,20,8.2z M20.3,2.5c-0.1,0.3-0.2,0.7-0.6,0.8
			C19.6,2.9,19.5,3.1,20.3,2.5C20.3,2.4,20.4,2.5,20.3,2.5z M14.9,5.6c0.2,0.1,0.3,0.3,0.5,0.4c0.1,0.2,0.3,0.3,0.6,0.4
			c0-0.2,0.3,0,0.4-0.2c0.2,0,0.2-0.2,0.3-0.3C16.7,5,15.5,3.2,14.9,5.6z" />
          </g>
        </g>
      </svg>
  </symbol>
  <!-- Иконки преимущества -->
  <g>

    <!-- Преимущество мяч-->
    <symbol id="icon-ball" viewBox="0 0 34.4 34.4">
      <svg version="1.1" id="Layer_1" xmlns:xlink="http://www.w3.org/1999/xlink" x="0px" y="0px"
        style="enable-background:new 0 0 34.4 34.4;" xml:space="preserve">
        <style type="text/css">
          .st0 {
            fill: #63D1BB;
          }

        </style>
        <g>
          <path class="st0" d="M0.3,14.1c-0.4,2.1-0.4,4.2,0,6.3l4.1-3.2L0.3,14.1z" />
          <path class="st0" d="M24.4,1.6C19.6-0.6,14-0.6,9.1,2l7.5,5.6L24.4,1.6z" />
          <path class="st0" d="M33.9,13.2l-4.8,3.7l4.9,3.7C34.5,18.2,34.5,15.6,33.9,13.2z" />
          <path class="st0" d="M9.2,32.4c4.8,2.5,10.7,2.7,15.7,0.1l-8.1-6.1L9.2,32.4z" />
          <path class="st0" d="M7.9,14.4L1.7,9.8c-0.3,0.7-0.6,1.4-0.8,2.1l5.3,4L7.9,14.4z" />
          <path class="st0" d="M18.6,25.1l8.3,6.2c0.3-0.3,0.3-0.2,1.7-1.4l-8.3-6.2L18.6,25.1z" />
          <path class="st0" d="M11.4,11.7L4,6.2C3.5,6.7,3.1,7.3,2.7,7.9l6.9,5.2L11.4,11.7z" />
          <path class="st0" d="M22.1,22.4l8.1,6.1c0.5-0.5,0.9-1.1,1.3-1.7L23.8,21L22.1,22.4z" />
          <path class="st0" d="M14.9,9L7.2,3.2C6.5,3.7,6.7,3.5,5.5,4.6l7.7,5.7L14.9,9z" />
          <path class="st0" d="M25.6,19.6l7,5.2c0.3-0.7,0.6-1.3,0.9-2l-6.1-4.5L25.6,19.6z" />
          <path class="st0" d="M26.4,2.7L0.9,22.6c0.2,0.7,0.5,1.4,0.8,2.1L28.2,4C27.7,3.5,27.1,3.1,26.4,2.7z" />
          <path class="st0"
            d="M30.7,6.6c-0.3-0.4-0.6-0.8-0.9-1.1l-27,21C3,26.8,3,27,4.1,28.3L31.2,7.2C31,7,30.9,6.8,30.7,6.6z" />
          <path class="st0" d="M32.3,9L5.6,29.8c0.5,0.5,1.1,1,1.7,1.4l26-20.2C33,10.3,32.7,9.6,32.3,9z" />
        </g>
      </svg>
    </symbol>

    <!-- Преимущество  цветок-->
    <symbol id="icon-flower" viewBox="0 0 32 37.3">
      <svg version="1.1" id="Layer_1" xmlns:xlink="http://www.w3.org/1999/xlink" x="0px" y="0px"
        style="enable-background:new 0 0 32 37.3;" xml:space="preserve">
        <style type="text/css">
          .st0 {
            fill: #63D1BB;
          }

        </style>
        <path class="st0" d="M16,37.3c8.8,0,16-7.2,16-16C23.1,21.3,16,28.5,16,37.3z M4.6,16.4c0.9,2.5,1.9,6,7,3.7c-0.7,4.9,8.6,7,8.8,0
        c3.4,3,10.8-4,4.4-7.7c3.9-1.7,3-11-4.4-7.7c0.7-4.9-8.6-7-8.8,0c-3.4-3-10.8,4-4.4,7.7C5.7,13.1,4.6,14.7,4.6,16.4z M16,8
        c4.6-0.1,6.5,8,0,8.9C11.4,16.9,9.5,8.9,16,8z M0,21.3c0,8.8,7.2,16,16,16C16,28.5,8.8,21.3,0,21.3z" />
      </svg>
    </symbol>
    <!-- Преимущество подарок -->
    <symbol id="icon-gift" viewBox="0 0 32.7 32.5">
      <svg version="1.1" id="Layer_1" xmlns:xlink="http://www.w3.org/1999/xlink" x="0px" y="0px"
        style="enable-background:new 0 0 32.7 32.5;" xml:space="preserve">
        <style type="text/css">
          .st0 {
            fill: #63D1BB;
          }

        </style>
        <path class="st0"
          d="M2.9,32.5h12.5V18.6H2.9V32.5z M31.1,8.9h-7.3C32,5.7,24-7.3,16.3,5.4C15.4-2-2.4-0.9,8.2,8.9
        c-9.6-0.9-8,0.8-8.2,7.5h15.4V8.9h1.9v7.5h15.4C32.1,14.2,34.1,9.7,31.1,8.9 M8.7,6.5C4.6,5.1,10.6-3,14.9,8.3
        C11.9,7.9,9.9,7.3,8.7,6.5 M19.3,4.9c1.7-5.1,12.8-0.2-1.6,3.5C18,7.2,18.5,5.9,19.3,4.9 M17.3,32.5h12.5V18.6H17.3V32.5z" />
      </svg>
    </symbol>
    <!--Преимущество сердце-->
    <symbol id="icon-heart" viewBox="47.475 50.071 33.05 27.857">
      <svg version="1.1" id="Layer_1" xmlns:xlink="http://www.w3.org/1999/xlink" x="0px" y="0px" width="33.05px"
        height="27.857px" enable-background="new 47.475 50.071 33.05 27.857"
        xml:space="preserve">
        <path fill="#63d1bb"
          d="M80.525,58.808c0-4.825-3.912-8.736-8.736-8.736c-3.405,0-6.348,1.951-7.789,4.793 c-1.441-2.842-4.384-4.793-7.789-4.793c-4.825,0-8.736,3.911-8.736,8.736c0,9.127,14.657,19.121,16.525,19.121 C65.869,77.929,80.525,67.979,80.525,58.808z" />
      </svg>
    </symbol>
    <!--Преимущество деньги-->
    <symbol id="icon-money" viewBox="46.212 56.834 46.575 27.332">
      <svg version="1.1" id="Money" xmlns:xlink="http://www.w3.org/1999/xlink" x="0px" y="0px" width="46.575px"
        height="27.332px" enable-background="new 46.212 56.834 46.575 27.332"
        xml:space="preserve">
        <path fill="#63d1bb"
          d="M88.882,56.834H50.116c-2.156,0-3.904,1.749-3.904,3.905v19.521c0,2.156,1.748,3.905,3.904,3.905h38.766 c2.156,0,3.905-1.749,3.905-3.905V60.739C92.787,58.583,91.038,56.834,88.882,56.834z M49.235,81.784V59.551h40.202v22.233H49.235z" />
        <path fill="#63d1bb"
          d="M53.14,77.88h32.395V63.456H53.14V77.88z M69.5,65.354c2.936,0,5.315,2.38,5.315,5.314c0,2.936-2.379,5.314-5.315,5.314 s-5.314-2.379-5.314-5.314C64.185,67.733,66.564,65.354,69.5,65.354z" />
      </svg>
    </symbol>
    <!--Преимущество ракета-->
    <symbol id="icon-rocket" viewBox="612.532 500.386 54.156 23.183">
      <svg version="1.1" id="Layer_1" xmlns:xlink="http://www.w3.org/1999/xlink" x="0px" y="0px" width="54.156px"
        height="23.183px" enable-background="new 612.532 500.386 54.156 23.183"
        xml:space="preserve">
        <g>
          <path fill="#63d1bb"
            d="M652.844,506.098c-3.647-0.971-7.839-1.667-12.359-1.666c-2.891,0.001-5.457,0.243-7.71,0.623l-6.784-4.668l-13.456,0.005 l5.811,6.184h8.447c-4.58,1.598-6.759,3.515-6.759,3.515l0.002,3.777c0,0,2.313,1.912,6.931,3.518l-8.623-0.005l-5.811,6.188 l13.455,0.002l6.816-4.692c2.261,0.398,4.822,0.647,7.681,0.648c4.522-0.001,8.712-0.697,12.36-1.667 c-1.176-1.775-1.915-3.743-1.918-5.877C650.93,509.842,651.665,507.871,652.844,506.098z" />
          <path fill="#63d1bb"
            d="M656.267,507.132c-1.284,1.605-1.969,3.25-1.965,4.84c-0.007,1.597,0.677,3.238,1.968,4.847 c6.399-2.162,10.419-4.841,10.419-4.841S662.67,509.298,656.267,507.132z" />
        </g>
      </svg>
    </symbol>
  </g>


  <!-- Promo навигация -->
  <g>

    <!-- Меню интерьер -->
    <symbol id="icon-interror" viewBox="-259.404 -19.675 40.219 62.411">
      <svg version="1.1" id="svg4488" xmlns:xlink="http://www.w3.org/1999/xlink" x="0px" y="0px" width="40.219px"
        height="62.411px"
        enable-background="new -259.404 -19.675 40.219 62.411" xml:space="preserve">
        <g>
          <path
            d="M-244.227,18.283c-0.286,0.966-0.245,2.191,0.027,3.639c0.494,2.635,1.687,6.041,2.358,9.67h5.062 c0.696-3.641,1.949-7.05,2.471-9.683c0.287-1.445,0.33-2.66,0.041-3.617c-0.275-0.899-0.89-1.618-2.021-2.303h-5.997 C-243.361,16.668-243.96,17.38-244.227,18.283z" />
          <path
            d="M-232.395,38.278h-13.799c-1.293,0-2.299,0.976-2.299,2.229v2.229h2.299h13.799h2.299v-2.229 C-230.096,39.254-231.102,38.278-232.395,38.278z" />
          <path
            d="M-225.262-17.446h-11.732c0-1.244-1.015-2.229-2.3-2.229c-1.283,0-2.3,0.985-2.3,2.229h-11.737l-6.073,25.517 c0.794-0.461,1.589-0.992,2.632-0.992c1.359,0,2.243,0.818,2.924,1.375c0.682,0.557,1.162,0.849,1.447,0.849 c0.292,0.001,0.769-0.287,1.451-0.836c0.681-0.548,1.564-1.358,2.915-1.358c1.349,0,2.237,0.806,2.919,1.354 c0.684,0.549,1.161,0.84,1.451,0.84c0.146,0,0.338-0.073,0.58-0.214c0.242-0.141,0.53-0.353,0.872-0.626 c0.512-0.411,1.139-0.967,1.99-1.218c0.284-0.085,0.593-0.136,0.93-0.136c1.347,0,2.238,0.805,2.92,1.354 c0.683,0.548,1.159,0.84,1.451,0.84c0.287-0.002,0.766-0.296,1.445-0.85c0.684-0.554,1.571-1.367,2.925-1.367 c1.356,0,2.239,0.817,2.919,1.371c0.342,0.276,0.631,0.489,0.872,0.631c0.24,0.143,0.431,0.214,0.575,0.214 c0.288,0,0.762-0.293,1.442-0.854c0.68-0.559,1.567-1.384,2.929-1.384c1.044,0,1.839,0.533,2.632,0.997L-225.262-17.446z" />
          <path
            d="M-235.881,33.82h-6.864c-0.657,0-1.15,0.479-1.15,1.115c0,0.635,0.493,1.113,1.15,1.113h6.9c0.655,0,1.15-0.479,1.15-1.113 c0-0.636-0.495-1.115-1.15-1.115H-235.881z" />
          <path
            d="M-239.295,9.336c-0.146,0-0.338,0.074-0.58,0.213c-0.157,0.094-0.37,0.261-0.57,0.41v3.731h2.299V9.959 C-238.651,9.581-239.054,9.336-239.295,9.336z" />
        </g>
      </svg>
    </symbol>
    <!--Меню игрушки-->
    <symbol id="icon-toys" viewBox="0 0 60 59.6">
      <svg version="1.1" id="Layer_1" xmlns:xlink="http://www.w3.org/1999/xlink" x="0px" y="0px"
        style="enable-background:new 0 0 60 59.6;" xml:space="preserve">
        <style type="text/css">
          .st0 {
            fill: #231F20;
          }

        </style>
        <path class="st0" d="M0,43.7l27.4,15.9V36.3L0,20.3V43.7z M51.3,12.4c2.1,8.1-18.9,7.7-15.5-1.6h0c4.8,8,27.4-2,6.7-3.5l-5-2.9
    c3.1,7.3-17,9.9-15.5,0.1l-4.8,2.8C-3,8.8,18.2,18.9,24,10.8h0c3.4,9.5-17,9.7-15.5,1.6l-6,3.5l27.5,16L57.5,16L51.3,12.4z
     M37.7,22.6c-1.6,5.1-18.6,4.6-15.5-4.1h0c0.2,3.2,13.7,4.5,15.4,0h0L37.7,22.6L37.7,22.6z M32.6,36.5v23.1L60,43.7V20.5L32.6,36.5z
     M29.9,6.6c10.5-0.3,10.2-7.4-2.4-6.4C20,1.2,20.6,6.2,29.9,6.6" />
      </svg>
    </symbol>
  </g>

  <!-- Стрелки отзывы -->
  <g>
    <!--Отзывы стрелка левая-->
    <symbol id="arrow-left"  viewBox="0 0 50 26.003">
      <svg version="1.1" id="Layer_1" xmlns:xlink="http://www.w3.org/1999/xlink" x="0px" y="0px" width="50px"
        height="26.003px" enable-background="new 0 0 50 26.003" xml:space="preserve">
        <polygon
          points="50,11.002 7.659,11.002 15.833,2.828 13.005,0 0,12.998 0.003,13.001 0,13.005 13.005,26.003 15.833,23.175 7.661,15.002 50,15.002 " />
      </svg>
    </symbol>
    <!-- Отзывы стрелка правая -->
    <symbol id="arroe-right" viewBox="0 0 50 26.003">
      <svg version="1.1" id="Layer_1" xmlns:xlink="http://www.w3.org/1999/xlink" x="0px" y="0px" width="50px"
        height="26.003px" enable-background="new 0 0 50 26.003" xml:space="preserve">
        <polygon
          points="0,11.002 42.341,11.002 34.166,2.828 36.995,0 50,12.998 49.996,13.001 50,13.005 36.995,26.003 34.166,23.175 42.339,15.002 0,15.002 " />
      </svg>
    </symbol>
  </g>

  <!-- Иконки form -->
  <g>

    <!--Иконка конверт form -->
    <symbol id="icon-envelope" viewBox="0 0 32 32">
      <svg version="1.1" id="Layer_1" xmlns:xlink="http://www.w3.org/1999/xlink" x="0px" y="0px" width="32px"
        height="32px" enable-background="new 0 0 32 32" xml:space="preserve">
        <path id="mail" fill="#333333"
          d="M28,5H4C1.791,5,0,6.792,0,9v13c0,2.209,1.791,4,4,4h24c2.209,0,4-1.791,4-4V9 C32,6.792,30.209,5,28,5z M2,10.25l6.999,5.25L2,20.75V10.25z M30,22c0,1.104-0.898,2-2,2H4c-1.103,0-2-0.896-2-2l7.832-5.875 l4.368,3.277c0.533,0.397,1.166,0.6,1.8,0.6c0.633,0,1.266-0.201,1.799-0.6l4.369-3.277L30,22L30,22z M30,20.75l-7-5.25l7-5.25 V20.75z M17.199,18.602c-0.35,0.263-0.763,0.4-1.199,0.4s-0.851-0.139-1.2-0.4L10.665,15.5l-0.833-0.625L2,9.001V9 c0-1.103,0.897-2,2-2h24c1.102,0,2,0.897,2,2L17.199,18.602z" />
      </svg>
    </symbol>
    <!-- Иконка телефон  -->
    <symbol id="icon-phone" viewBox="0 0 24.8 24.3">
      <svg version="1.1" id="Layer_2" xmlns:xlink="http://www.w3.org/1999/xlink" x="0px" y="0px"
        style="enable-background:new 0 0 24.8 24.3;" xml:space="preserve">
        <g>
          <g id="UrwUhy_2_">
            <g>
              <path d="M17.3,24.3c-34.9-9.3-4.7-36.7-12.5-13.8c1.6,3.7,4.1,6.5,7.5,8.3C14.9,14.5,26,20.3,17.3,24.3z" />
            </g>
          </g>
          <path d="M12.5,1.5c5.9,0,10.8,4.8,10.8,10.8h1.5C24.8,5.5,19.3,0,12.5,0V1.5z" />
          <path d="M12.5,9.3v1.6c0.8,0,1.4,0.6,1.4,1.4h1.6C15.5,10.7,14.2,9.3,12.5,9.3z" />
          <path d="M12.5,6.2c3.3,0,6.1,2.7,6.1,6.1h1.6c0-4.2-3.4-7.6-7.6-7.6V6.2z" />
        </g>
      </svg>
    </symbol>
    <!-- Иконка галочка чекбокса -->
    <symbol id="icon-check" viewBox="0 0 32.666 22.742">
      <svg version="1.1" id="Layer_1" xmlns:xlink="http://www.w3.org/1999/xlink" x="0px" y="0px" width="32.666px"
        height="22.742px" enable-background="new 0 0 32.666 22.742" xml:space="preserve">
        <polygon
          points="32.666,1.414 31.252,0 11.338,19.914 1.414,9.989 0,11.403 9.924,21.328 9.924,21.328 11.338,22.742 11.338,22.742 11.339,22.742 12.753,21.328 12.752,21.328 " />
      </svg>
    </symbol>

  </g>



  <!-- Шапка открыть/закрыть меню -->
  <g>

    <!--Иконка кнопка закрыть меню -->
    <symbol id="btn-open" viewBox="0 0 20.514 20.512">
      <svg version="1.1" id="Layer_1" xmlns:xlink="http://www.w3.org/1999/xlink" x="0px" y="0px" width="20.514px"
        height="20.512px" enable-background="new 0 0 20.514 20.512" xml:space="preserve">
        <polygon fill="#231F20"
          points="20.513,1.414 19.099,0 10.256,8.842 1.414,0 0,1.414 8.842,10.256 0,19.098 1.414,20.512 10.256,11.67 19.099,20.512 20.513,19.098 11.671,10.256 " />
      </svg>
    </symbol>
    <!--Иконка кнопка открыть меню-->
    <symbol id="btn-close" viewBox="0 0 19.958 14">
      <svg version="1.1" id="Layer_1" xmlns:xlink="http://www.w3.org/1999/xlink" x="0px" y="0px" width="19.958px"
        height="14px" enable-background="new 0 0 19.958 14" xml:space="preserve">
        <rect fill="#231F20" width="19.958" height="2" />
        <rect y="6" fill="#231F20" width="19.958" height="2" />
        <rect y="12" fill="#231F20" width="19.958" height="2" />
      </svg>
    </symbol>
  </g>

  <!-- Иконка кнопка включить видео play -->
  <symbol id="icon-play" viewBox="0 0 100.7 76.9">
    <svg version="1.1" id="Laag_1" xmlns:xlink="http://www.w3.org/1999/xlink" x="0px" y="0px"
      style="enable-background:new 0 0 100.7 76.9;" xml:space="preserve">
      <style type="text/css">
        .st0 {
          fill: #63D1BB;
        }

        .st1 {
          fill: #FFFFFF;
        }

      </style>
      <g>
        <g>
          <path class="st0"
            d="M97,18.1C97.5-8.2,25.8,5.8,14.5,4.1C-4.2,5.8,1.5,68,9.4,70.5C112,85.4,98.4,66.8,97,18.1z" />
          <path class="st1" d="M50.3,76.9C39.7,75.1,4.8,82.4,1.7,62.8C-0.6,47-5.3,2.6,14.8,1.2c83.2-3.8,85.2-3.8,85.8,33.3
        C104.9,90,76.7,73.7,50.3,76.9L50.3,76.9z M18.4,70.4C98.6,73,94,74.1,95.2,42.3c-1.2-13.5,2.7-25.2-6-34.1
        C62.6,3.7,2.1,0,6.3,19.2C5.9,38.5,0.6,71,18.4,70.4z" />
        </g>
      </g>
      <g>
        <polygon class="st1" points="38.4,20.6 38.4,56.3 68.2,38.4 	" />
      </g>
    </svg>
  </symbol>
</svg>
